<svg width="4000" height="3273" viewBox="0 0 4000 3273" fill="none" xmlns="http://www.w3.org/2000/svg">
<g id="23.computer-engineering [Converted] 1">
<g id="Objects">
<g id="table">
<path id="Vector" opacity="0.1" d="M2815.45 2378.36L2288.94 2682.34L1130.64 2013.59L1657.1 1709.58L2815.45 2378.36Z" fill="black"/>
<g id="desk_5_">
<g id="Group">
<path id="Vector_2" d="M2751.84 1711.87C2745.51 1715.52 2745.48 1721.44 2751.77 1725.09C2758.05 1728.74 2768.26 1728.74 2774.59 1725.09C2780.91 1721.44 2780.94 1715.53 2774.66 1711.88C2768.37 1708.22 2758.16 1708.22 2751.84 1711.87Z" fill="#B6B7B7"/>
</g>
<g id="Group_2">
<g id="Group_3">
<g id="Group_4">
<path id="Vector_3" d="M2744.08 2339.05V2348.59C2744.09 2351.67 2746.12 2354.75 2750.17 2357.11C2758.31 2361.84 2771.56 2361.84 2779.77 2357.11C2783.9 2354.73 2785.96 2351.6 2785.95 2348.48V2338.94C2785.96 2342.06 2783.9 2345.19 2779.77 2347.57C2771.56 2352.31 2758.31 2352.31 2750.17 2347.58C2746.12 2345.21 2744.09 2342.14 2744.08 2339.05Z" fill="#505050"/>
</g>
<g id="Group_5">
<path id="Vector_4" d="M2750.27 2330.42C2742.06 2335.16 2742.02 2342.83 2750.17 2347.57C2758.31 2352.3 2771.56 2352.3 2779.77 2347.56C2787.97 2342.83 2788.01 2335.15 2779.87 2330.42C2771.71 2325.69 2758.47 2325.69 2750.27 2330.42Z" fill="#717171"/>
</g>
</g>
</g>
<g id="Group_6">
<g id="Group_7">
<g id="Group_8">
<path id="Vector_5" d="M1690.59 1730.3V1739.84C1690.6 1742.92 1692.63 1746 1696.68 1748.36C1704.82 1753.09 1718.07 1753.09 1726.28 1748.35C1730.41 1745.97 1732.47 1742.84 1732.46 1739.72V1730.18C1732.47 1733.3 1730.41 1736.43 1726.28 1738.81C1718.07 1743.55 1704.82 1743.55 1696.68 1738.81C1692.63 1736.46 1690.6 1733.38 1690.59 1730.3Z" fill="#505050"/>
</g>
<g id="Group_9">
<path id="Vector_6" d="M1696.78 1721.67C1688.57 1726.41 1688.53 1734.08 1696.68 1738.82C1704.82 1743.55 1718.07 1743.55 1726.28 1738.82C1734.48 1734.09 1734.52 1726.41 1726.38 1721.68C1718.22 1716.93 1704.97 1716.93 1696.78 1721.67Z" fill="#717171"/>
</g>
</g>
</g>
<g id="Group_10">
<g id="Group_11">
<g id="Group_12">
<g id="Group_13">
<path id="Vector_7" d="M1696.3 1614.14L1704.46 1609.7C1702.16 1609.38 1699.95 1609.51 1697.91 1610.03L1689.75 1614.47C1691.79 1613.95 1694 1613.82 1696.3 1614.14Z" fill="#4B4B4B"/>
<path id="Vector_8" d="M1689.75 1614.47L1697.91 1610.03C1696.87 1610.3 1695.86 1610.67 1694.92 1611.14L1686.76 1615.58C1687.71 1615.11 1688.71 1614.74 1689.75 1614.47Z" fill="#494949"/>
<path id="Vector_9" d="M1686.76 1615.58L1694.92 1611.14C1694.73 1611.24 1694.53 1611.34 1694.34 1611.44L1686.18 1615.88C1686.37 1615.77 1686.56 1615.67 1686.76 1615.58Z" fill="#464646"/>
</g>
</g>
<g id="Group_14">
<g id="Group_15">
<path id="Vector_10" d="M1706.5 1653.28L1714.66 1648.84C1719.95 1645.96 1723.45 1640.07 1723.44 1632.8C1723.43 1630.02 1722.92 1627.29 1721.98 1624.75L1713.82 1629.19C1714.76 1631.74 1715.27 1634.46 1715.28 1637.24C1715.29 1644.52 1711.79 1650.4 1706.5 1653.28Z" fill="#3A3B3A"/>
<path id="Vector_11" d="M1713.82 1629.19L1721.98 1624.75C1721.58 1623.65 1721.1 1622.59 1720.55 1621.56L1712.39 1626C1712.93 1627.03 1713.42 1628.09 1713.82 1629.19Z" fill="#3D3D3D"/>
<path id="Vector_12" d="M1712.38 1626L1720.54 1621.56C1720.07 1620.69 1719.56 1619.86 1719 1619.06L1710.84 1623.5C1711.4 1624.3 1711.92 1625.14 1712.38 1626Z" fill="#404040"/>
<path id="Vector_13" d="M1710.84 1623.5L1719 1619.06C1718.47 1618.31 1717.9 1617.58 1717.3 1616.9L1709.14 1621.34C1709.74 1622.03 1710.31 1622.75 1710.84 1623.5Z" fill="#424242"/>
<path id="Vector_14" d="M1709.14 1621.34L1717.3 1616.9C1716.69 1616.21 1716.05 1615.56 1715.37 1614.95L1707.21 1619.39C1707.89 1620 1708.53 1620.65 1709.14 1621.34Z" fill="#444444"/>
<path id="Vector_15" d="M1707.21 1619.39L1715.37 1614.95C1714.64 1614.3 1713.88 1613.69 1713.08 1613.14L1704.92 1617.58C1705.72 1618.13 1706.48 1618.74 1707.21 1619.39Z" fill="#464646"/>
<path id="Vector_16" d="M1704.92 1617.58L1713.08 1613.14C1712.1 1612.46 1711.07 1611.87 1710 1611.37L1701.84 1615.81C1702.91 1616.31 1703.94 1616.9 1704.92 1617.58Z" fill="#494949"/>
<path id="Vector_17" d="M1701.84 1615.81L1710 1611.37C1708.25 1610.55 1706.39 1609.97 1704.46 1609.7L1696.3 1614.14C1698.23 1614.41 1700.09 1614.98 1701.84 1615.81Z" fill="#4B4B4B"/>
</g>
</g>
<g id="Group_16">
<path id="Vector_18" d="M1706.51 1653.17C1715.33 1648.36 1717.93 1636.1 1712.32 1625.78C1706.7 1615.46 1694.99 1610.98 1686.17 1615.78C1677.34 1620.58 1674.74 1632.84 1680.36 1643.17C1685.98 1653.49 1697.68 1657.97 1706.51 1653.17Z" fill="#636363"/>
</g>
</g>
</g>
<g id="Group_17">
<path id="Vector_19" d="M1693.58 1109.78L1695.28 1729.44C1695.29 1731.82 1696.85 1734.19 1699.97 1736C1706.25 1739.65 1716.46 1739.65 1722.79 1736C1725.97 1734.16 1727.56 1731.75 1727.55 1729.35L1725.85 1109.69C1725.86 1112.1 1724.27 1114.51 1721.09 1116.34C1714.76 1119.99 1704.55 1119.99 1698.27 1116.34C1695.15 1114.53 1693.59 1112.15 1693.58 1109.78Z" fill="#505050"/>
</g>
<g id="Group_18">
<g id="Group_19">
<g id="Group_20">
<path id="Vector_20" d="M1241.4 1909.06C1247.72 1912.73 1252.86 1909.81 1252.9 1902.54C1252.94 1895.28 1247.85 1886.42 1241.53 1882.76C1235.22 1879.1 1230.07 1882.02 1230.04 1889.28C1230 1896.54 1235.08 1905.39 1241.4 1909.06Z" fill="#B6B7B7"/>
</g>
<g id="Group_21">
<path id="Vector_21" d="M1249.54 1909.87L1706.21 1646.94C1708.27 1645.75 1709.55 1643.21 1709.56 1639.6C1709.6 1632.34 1704.51 1623.48 1698.19 1619.82C1695.01 1617.98 1692.13 1617.8 1690.05 1619.01L1233.38 1881.94C1235.46 1880.74 1238.34 1880.91 1241.52 1882.75C1247.84 1886.42 1252.93 1895.27 1252.89 1902.53C1252.88 1906.15 1251.6 1908.68 1249.54 1909.87Z" fill="#505050"/>
</g>
</g>
</g>
<g id="Group_22">
<g id="Group_23">
<g id="Group_24">
<path id="Vector_22" d="M1215.78 2003.32V2012.86C1215.79 2015.94 1217.82 2019.02 1221.87 2021.38C1230.01 2026.11 1243.26 2026.11 1251.47 2021.37C1255.6 2018.99 1257.66 2015.86 1257.65 2012.74V2003.2C1257.66 2006.32 1255.6 2009.45 1251.47 2011.83C1243.26 2016.57 1230.02 2016.57 1221.87 2011.84C1217.82 2009.48 1215.79 2006.41 1215.78 2003.32Z" fill="#505050"/>
</g>
<g id="Group_25">
<path id="Vector_23" d="M1221.97 1994.69C1213.76 1999.43 1213.72 2007.1 1221.87 2011.84C1230.01 2016.57 1243.26 2016.57 1251.47 2011.83C1259.67 2007.1 1259.71 1999.42 1251.57 1994.69C1243.41 1989.95 1230.16 1989.95 1221.97 1994.69Z" fill="#717171"/>
</g>
</g>
</g>
<g id="Group_26">
<g id="Group_27">
<g id="Group_28">
<g id="Group_29">
<path id="Vector_24" d="M1240.77 1875.85L1248.93 1871.41C1246.63 1871.09 1244.42 1871.22 1242.38 1871.74L1234.21 1876.18C1236.26 1875.66 1238.47 1875.53 1240.77 1875.85Z" fill="#4B4B4B"/>
<path id="Vector_25" d="M1234.22 1876.18L1242.39 1871.74C1241.35 1872.01 1240.34 1872.38 1239.4 1872.85L1231.23 1877.29C1232.18 1876.82 1233.18 1876.45 1234.22 1876.18Z" fill="#494949"/>
<path id="Vector_26" d="M1231.23 1877.29L1239.4 1872.85C1239.21 1872.95 1239.01 1873.05 1238.82 1873.15L1230.65 1877.59C1230.84 1877.48 1231.04 1877.39 1231.23 1877.29Z" fill="#464646"/>
</g>
</g>
<g id="Group_30">
<g id="Group_31">
<path id="Vector_27" d="M1250.97 1914.99L1259.13 1910.55C1264.42 1907.67 1267.92 1901.78 1267.91 1894.51C1267.9 1891.73 1267.39 1889 1266.45 1886.46L1258.29 1890.9C1259.23 1893.45 1259.74 1896.17 1259.75 1898.95C1259.76 1906.23 1256.26 1912.11 1250.97 1914.99Z" fill="#3A3B3A"/>
<path id="Vector_28" d="M1258.29 1890.9L1266.45 1886.46C1266.05 1885.36 1265.57 1884.3 1265.02 1883.27L1256.86 1887.71C1257.41 1888.74 1257.89 1889.8 1258.29 1890.9Z" fill="#3D3D3D"/>
<path id="Vector_29" d="M1256.86 1887.71L1265.02 1883.27C1264.55 1882.4 1264.04 1881.57 1263.48 1880.77L1255.32 1885.21C1255.87 1886.01 1256.39 1886.85 1256.86 1887.71Z" fill="#404040"/>
<path id="Vector_30" d="M1255.31 1885.21L1263.47 1880.77C1262.94 1880.02 1262.37 1879.29 1261.77 1878.61L1253.6 1883.05C1254.22 1883.74 1254.79 1884.46 1255.31 1885.21Z" fill="#424242"/>
<path id="Vector_31" d="M1253.61 1883.05L1261.78 1878.61C1261.17 1877.92 1260.53 1877.27 1259.85 1876.66L1251.69 1881.1C1252.36 1881.71 1253 1882.36 1253.61 1883.05Z" fill="#444444"/>
<path id="Vector_32" d="M1251.68 1881.1L1259.84 1876.66C1259.11 1876.01 1258.35 1875.4 1257.55 1874.85L1249.39 1879.29C1250.19 1879.84 1250.95 1880.45 1251.68 1881.1Z" fill="#464646"/>
<path id="Vector_33" d="M1249.39 1879.29L1257.55 1874.85C1256.57 1874.17 1255.54 1873.58 1254.47 1873.08L1246.31 1877.52C1247.38 1878.02 1248.41 1878.61 1249.39 1879.29Z" fill="#494949"/>
<path id="Vector_34" d="M1246.31 1877.52L1254.47 1873.08C1252.72 1872.26 1250.86 1871.68 1248.93 1871.41L1240.77 1875.85C1242.7 1876.12 1244.56 1876.69 1246.31 1877.52Z" fill="#4B4B4B"/>
</g>
</g>
<g id="Group_32">
<path id="Vector_35" d="M1251.01 1914.87C1259.83 1910.07 1262.43 1897.81 1256.81 1887.49C1251.2 1877.17 1239.49 1872.69 1230.67 1877.49C1221.84 1882.29 1219.24 1894.55 1224.86 1904.87C1230.47 1915.2 1242.18 1919.67 1251.01 1914.87Z" fill="#636363"/>
</g>
</g>
</g>
<g id="Group_33">
<g id="Group_34">
<g id="Group_35">
<path id="Vector_36" d="M1219.73 1383.37L1221.43 2003.03C1221.44 2005.41 1223 2007.78 1226.12 2009.59C1232.4 2013.24 1242.61 2013.24 1248.94 2009.59C1252.12 2007.75 1253.71 2005.34 1253.7 2002.94L1252 1383.28C1252.01 1385.69 1250.42 1388.1 1247.24 1389.93C1240.91 1393.58 1230.7 1393.58 1224.42 1389.93C1221.3 1388.12 1219.73 1385.75 1219.73 1383.37Z" fill="#505050"/>
</g>
<g id="Group_36">
<path id="Vector_37" d="M1224.49 1376.72C1218.16 1380.37 1218.13 1386.29 1224.42 1389.94C1230.7 1393.59 1240.91 1393.59 1247.24 1389.94C1253.56 1386.29 1253.59 1380.38 1247.31 1376.73C1241.03 1373.07 1230.81 1373.07 1224.49 1376.72Z" fill="#B6B7B7"/>
</g>
</g>
</g>
<g id="Group_37">
<g id="Group_38">
<g id="Group_39">
<path id="Vector_38" d="M1517.8 1744.28L1501.99 1735.09C1499.02 1733.37 1494.91 1733.61 1490.38 1736.23L1506.19 1745.42C1510.72 1742.8 1514.83 1742.55 1517.8 1744.28Z" fill="#444444"/>
</g>
<g id="Group_40">
<path id="Vector_39" d="M1478.88 1774.85L1494.69 1784.04C1491.76 1782.34 1489.95 1778.72 1489.93 1773.58C1489.9 1763.23 1497.18 1750.62 1506.19 1745.42L1490.38 1736.23C1481.37 1741.43 1474.09 1754.04 1474.12 1764.39C1474.13 1769.53 1475.95 1773.15 1478.88 1774.85Z" fill="#444444"/>
</g>
<g id="Group_41">
<path id="Vector_40" d="M1506.19 1745.41C1497.18 1750.61 1489.9 1763.22 1489.93 1773.57C1489.96 1783.92 1497.28 1788.1 1506.3 1782.9C1515.3 1777.7 1522.59 1765.09 1522.56 1754.74C1522.53 1744.39 1515.2 1740.22 1506.19 1745.41Z" fill="#636363"/>
</g>
</g>
</g>
<g id="Group_42">
<g id="Group_43">
<g id="Group_44">
<path id="Vector_41" d="M1966.26 2017.36C1966.31 2010.06 1961.22 2007.04 1954.89 2010.61C1948.57 2014.18 1943.41 2023 1943.36 2030.3C1943.31 2037.6 1948.4 2040.62 1954.72 2037.04C1961.05 2033.47 1966.21 2024.66 1966.26 2017.36Z" fill="#505050"/>
</g>
<g id="Group_45">
<path id="Vector_42" d="M1962.92 2009.88L1513.38 1750.49C1511.33 1749.29 1508.49 1749.44 1505.34 1751.22C1499.02 1754.79 1493.86 1763.61 1493.81 1770.91C1493.79 1774.58 1495.06 1777.17 1497.14 1778.38L1946.68 2037.77C1944.6 2036.56 1943.32 2033.97 1943.35 2030.3C1943.4 2022.99 1948.56 2014.18 1954.88 2010.61C1958.03 2008.84 1960.87 2008.69 1962.92 2009.88Z" fill="#505050"/>
</g>
</g>
</g>
<g id="Group_46">
<g id="Group_47">
<g id="Group_48">
<path id="Vector_43" d="M1977.86 2010.21L1962.05 2001.02C1959.08 1999.3 1954.97 1999.54 1950.44 2002.16L1966.25 2011.35C1970.79 2008.73 1974.9 2008.49 1977.86 2010.21Z" fill="#444444"/>
</g>
<g id="Group_49">
<path id="Vector_44" d="M1938.94 2040.79L1954.75 2049.98C1951.82 2048.28 1950.01 2044.66 1949.99 2039.52C1949.96 2029.17 1957.24 2016.56 1966.25 2011.36L1950.44 2002.17C1941.43 2007.37 1934.15 2019.98 1934.18 2030.33C1934.2 2035.47 1936.01 2039.08 1938.94 2040.79Z" fill="#444444"/>
</g>
<g id="Group_50">
<path id="Vector_45" d="M1977.91 2036.89C1984.29 2025.91 1984.31 2014.01 1977.95 2010.31C1971.59 2006.61 1961.26 2012.52 1954.87 2023.5C1948.49 2034.49 1948.47 2046.38 1954.83 2050.08C1961.19 2053.78 1971.52 2047.87 1977.91 2036.89Z" fill="#636363"/>
</g>
</g>
</g>
<g id="Group_51">
<g id="Group_52">
<g id="Group_53">
<path id="Vector_46" d="M2550.03 2355.74C2550.08 2348.44 2544.99 2345.42 2538.66 2348.99C2532.34 2352.56 2527.18 2361.38 2527.13 2368.68C2527.08 2375.98 2532.17 2379 2538.49 2375.42C2544.83 2371.85 2549.99 2363.04 2550.03 2355.74Z" fill="#505050"/>
</g>
<g id="Group_54">
<path id="Vector_47" d="M2546.7 2348.27L1976.09 2016.54C1974.04 2015.34 1971.2 2015.49 1968.05 2017.27C1961.73 2020.84 1956.57 2029.66 1956.52 2036.96C1956.5 2040.63 1957.77 2043.22 1959.85 2044.43L2530.46 2376.16C2528.38 2374.95 2527.1 2372.36 2527.13 2368.69C2527.18 2361.39 2532.34 2352.57 2538.66 2349C2541.81 2347.22 2544.64 2347.07 2546.7 2348.27Z" fill="#505050"/>
</g>
</g>
</g>
<g id="Group_55">
<g id="Group_56">
<g id="Group_57">
<path id="Vector_48" d="M2551.16 2342.81L2535.35 2333.62C2532.38 2331.9 2528.27 2332.14 2523.74 2334.76L2539.55 2343.95C2544.08 2341.33 2548.19 2341.09 2551.16 2342.81Z" fill="#444444"/>
</g>
<g id="Group_58">
<path id="Vector_49" d="M2512.23 2373.39L2528.04 2382.58C2525.11 2380.88 2523.3 2377.26 2523.28 2372.12C2523.25 2361.77 2530.53 2349.16 2539.54 2343.96L2523.73 2334.77C2514.72 2339.97 2507.44 2352.58 2507.47 2362.93C2507.49 2368.07 2509.31 2371.68 2512.23 2373.39Z" fill="#444444"/>
</g>
<g id="Group_59">
<path id="Vector_50" d="M2539.55 2343.95C2530.54 2349.15 2523.26 2361.76 2523.29 2372.11C2523.32 2382.46 2530.64 2386.64 2539.66 2381.44C2548.66 2376.24 2555.95 2363.63 2555.92 2353.28C2555.89 2342.92 2548.55 2338.75 2539.55 2343.95Z" fill="#505050"/>
</g>
</g>
</g>
<g id="Group_60">
<path id="Vector_51" d="M2747.08 1718.53L2748.78 2338.19C2748.79 2340.57 2750.35 2342.94 2753.47 2344.75C2759.75 2348.4 2769.96 2348.4 2776.29 2344.75C2779.47 2342.91 2781.06 2340.5 2781.05 2338.1L2779.35 1718.44C2779.36 1720.85 2777.77 1723.26 2774.59 1725.09C2768.26 1728.74 2758.05 1728.74 2751.77 1725.09C2748.65 1723.28 2747.08 1720.91 2747.08 1718.53Z" fill="#505050"/>
</g>
<g id="Group_61">
<g id="Group_62">
<g id="Group_63">
<path id="Vector_52" d="M2269.27 2612.07V2621.61C2269.28 2624.69 2271.31 2627.77 2275.36 2630.13C2283.5 2634.86 2296.75 2634.86 2304.96 2630.12C2309.09 2627.74 2311.15 2624.61 2311.14 2621.49V2611.95C2311.15 2615.07 2309.09 2618.2 2304.96 2620.58C2296.75 2625.32 2283.5 2625.32 2275.36 2620.59C2271.31 2618.24 2269.28 2615.16 2269.27 2612.07Z" fill="#505050"/>
</g>
<g id="Group_64">
<path id="Vector_53" d="M2275.46 2603.44C2267.25 2608.18 2267.21 2615.85 2275.36 2620.59C2283.5 2625.32 2296.75 2625.32 2304.96 2620.58C2313.16 2615.85 2313.2 2608.17 2305.06 2603.44C2296.9 2598.71 2283.66 2598.71 2275.46 2603.44Z" fill="#717171"/>
</g>
</g>
</g>
<g id="Group_65">
<g id="Group_66">
<g id="Group_67">
<g id="Group_68">
<path id="Vector_54" d="M2749.79 2222.89L2757.95 2218.45C2755.65 2218.13 2753.44 2218.26 2751.4 2218.78L2743.23 2223.22C2745.28 2222.7 2747.49 2222.57 2749.79 2222.89Z" fill="#4B4B4B"/>
<path id="Vector_55" d="M2743.24 2223.23L2751.41 2218.79C2750.37 2219.06 2749.37 2219.43 2748.42 2219.9L2740.25 2224.34C2741.2 2223.87 2742.2 2223.49 2743.24 2223.23Z" fill="#494949"/>
<path id="Vector_56" d="M2740.25 2224.33L2748.42 2219.89C2748.23 2219.99 2748.03 2220.08 2747.84 2220.19L2739.67 2224.63C2739.86 2224.53 2740.06 2224.43 2740.25 2224.33Z" fill="#464646"/>
</g>
</g>
<g id="Group_69">
<g id="Group_70">
<path id="Vector_57" d="M2759.99 2262.03L2768.16 2257.59C2773.45 2254.71 2776.95 2248.82 2776.94 2241.55C2776.93 2238.77 2776.42 2236.04 2775.48 2233.5L2767.32 2237.94C2768.26 2240.49 2768.77 2243.21 2768.78 2245.99C2768.78 2253.27 2765.28 2259.16 2759.99 2262.03Z" fill="#3A3B3A"/>
<path id="Vector_58" d="M2767.31 2237.94L2775.47 2233.5C2775.07 2232.4 2774.59 2231.34 2774.04 2230.31L2765.88 2234.75C2766.43 2235.78 2766.91 2236.84 2767.31 2237.94Z" fill="#3D3D3D"/>
<path id="Vector_59" d="M2765.88 2234.76L2774.04 2230.32C2773.57 2229.45 2773.06 2228.62 2772.5 2227.82L2764.34 2232.26C2764.9 2233.05 2765.41 2233.89 2765.88 2234.76Z" fill="#404040"/>
<path id="Vector_60" d="M2764.33 2232.25L2772.49 2227.81C2771.96 2227.06 2771.39 2226.33 2770.79 2225.65L2762.62 2230.09C2763.24 2230.78 2763.81 2231.5 2764.33 2232.25Z" fill="#424242"/>
<path id="Vector_61" d="M2762.63 2230.09L2770.8 2225.65C2770.19 2224.96 2769.55 2224.31 2768.87 2223.7L2760.71 2228.14C2761.38 2228.75 2762.02 2229.4 2762.63 2230.09Z" fill="#444444"/>
<path id="Vector_62" d="M2760.7 2228.14L2768.86 2223.7C2768.13 2223.05 2767.37 2222.44 2766.57 2221.89L2758.41 2226.33C2759.21 2226.88 2759.97 2227.49 2760.7 2228.14Z" fill="#464646"/>
<path id="Vector_63" d="M2758.41 2226.33L2766.57 2221.89C2765.59 2221.21 2764.56 2220.62 2763.49 2220.12L2755.32 2224.56C2756.4 2225.06 2757.43 2225.65 2758.41 2226.33Z" fill="#494949"/>
<path id="Vector_64" d="M2755.33 2224.56L2763.5 2220.12C2761.75 2219.3 2759.89 2218.73 2757.96 2218.45L2749.8 2222.89C2751.72 2223.16 2753.58 2223.73 2755.33 2224.56Z" fill="#4B4B4B"/>
</g>
</g>
<g id="Group_71">
<path id="Vector_65" d="M2749.79 2222.89C2739.33 2221.42 2730.87 2229.37 2730.89 2240.67C2730.91 2251.96 2739.4 2262.3 2749.87 2263.77C2760.33 2265.24 2768.79 2257.28 2768.77 2245.99C2768.75 2234.7 2760.26 2224.36 2749.79 2222.89Z" fill="#636363"/>
</g>
</g>
</g>
<g id="Group_72">
<g id="Group_73">
<g id="Group_74">
<path id="Vector_66" d="M2294.89 2517.81C2301.21 2521.48 2306.35 2518.56 2306.39 2511.29C2306.43 2504.03 2301.34 2495.17 2295.02 2491.51C2288.71 2487.85 2283.56 2490.77 2283.53 2498.03C2283.49 2505.29 2288.58 2514.15 2294.89 2517.81Z" fill="#B6B7B7"/>
</g>
<g id="Group_75">
<path id="Vector_67" d="M2303.03 2518.63L2759.7 2255.7C2761.76 2254.51 2763.04 2251.97 2763.05 2248.36C2763.09 2241.1 2758 2232.24 2751.68 2228.58C2748.5 2226.74 2745.62 2226.56 2743.54 2227.77L2286.87 2490.7C2288.95 2489.5 2291.83 2489.67 2295.01 2491.51C2301.33 2495.18 2306.42 2504.03 2306.38 2511.29C2306.37 2514.9 2305.09 2517.44 2303.03 2518.63Z" fill="#505050"/>
</g>
</g>
</g>
<g id="Group_76">
<g id="Group_77">
<g id="Group_78">
<g id="Group_79">
<path id="Vector_68" d="M2294.27 2484.6L2302.44 2480.16C2300.14 2479.84 2297.93 2479.97 2295.89 2480.49L2287.73 2484.93C2289.76 2484.41 2291.96 2484.28 2294.27 2484.6Z" fill="#4B4B4B"/>
<path id="Vector_69" d="M2287.72 2484.94L2295.88 2480.5C2294.84 2480.77 2293.83 2481.14 2292.89 2481.61L2284.73 2486.05C2285.67 2485.58 2286.67 2485.2 2287.72 2484.94Z" fill="#494949"/>
<path id="Vector_70" d="M2284.72 2486.04L2292.88 2481.6C2292.69 2481.7 2292.49 2481.8 2292.3 2481.9L2284.14 2486.34C2284.34 2486.24 2284.53 2486.14 2284.72 2486.04Z" fill="#464646"/>
</g>
</g>
<g id="Group_80">
<g id="Group_81">
<path id="Vector_71" d="M2304.46 2523.74L2312.62 2519.3C2317.91 2516.42 2321.41 2510.53 2321.4 2503.26C2321.39 2500.48 2320.88 2497.75 2319.94 2495.21L2311.77 2499.65C2312.71 2502.2 2313.22 2504.92 2313.23 2507.7C2313.26 2514.98 2309.75 2520.87 2304.46 2523.74Z" fill="#3A3B3A"/>
<path id="Vector_72" d="M2311.78 2499.65L2319.95 2495.21C2319.55 2494.11 2319.07 2493.05 2318.52 2492.02L2310.35 2496.46C2310.9 2497.49 2311.38 2498.55 2311.78 2499.65Z" fill="#3D3D3D"/>
<path id="Vector_73" d="M2310.35 2496.47L2318.52 2492.03C2318.05 2491.16 2317.54 2490.33 2316.98 2489.53L2308.82 2493.97C2309.37 2494.76 2309.88 2495.6 2310.35 2496.47Z" fill="#404040"/>
<path id="Vector_74" d="M2308.81 2493.97L2316.97 2489.53C2316.44 2488.78 2315.87 2488.05 2315.27 2487.37L2307.11 2491.81C2307.71 2492.49 2308.28 2493.21 2308.81 2493.97Z" fill="#424242"/>
<path id="Vector_75" d="M2307.1 2491.8L2315.26 2487.36C2314.65 2486.67 2314.01 2486.02 2313.33 2485.41L2305.17 2489.85C2305.85 2490.46 2306.49 2491.11 2307.1 2491.8Z" fill="#444444"/>
<path id="Vector_76" d="M2305.17 2489.85L2313.33 2485.41C2312.6 2484.76 2311.84 2484.15 2311.04 2483.6L2302.87 2488.04C2303.68 2488.59 2304.44 2489.2 2305.17 2489.85Z" fill="#464646"/>
<path id="Vector_77" d="M2302.88 2488.04L2311.05 2483.6C2310.07 2482.92 2309.04 2482.33 2307.97 2481.83L2299.8 2486.27C2300.88 2486.77 2301.9 2487.36 2302.88 2488.04Z" fill="#494949"/>
<path id="Vector_78" d="M2299.81 2486.27L2307.98 2481.83C2306.23 2481.01 2304.37 2480.43 2302.44 2480.16L2294.27 2484.6C2296.19 2484.87 2298.05 2485.44 2299.81 2486.27Z" fill="#4B4B4B"/>
</g>
</g>
<g id="Group_82">
<path id="Vector_79" d="M2304.49 2523.55C2313.31 2518.75 2315.91 2506.49 2310.3 2496.16C2304.68 2485.84 2292.97 2481.36 2284.15 2486.16C2275.32 2490.96 2272.72 2503.22 2278.34 2513.55C2283.96 2523.87 2295.66 2528.35 2304.49 2523.55Z" fill="#636363"/>
</g>
</g>
</g>
<g id="Group_83">
<g id="Group_84">
<g id="Group_85">
<path id="Vector_80" d="M2273.22 1992.13L2274.92 2611.79C2274.93 2614.17 2276.49 2616.54 2279.61 2618.35C2285.89 2622 2296.1 2622 2302.43 2618.35C2305.61 2616.51 2307.2 2614.1 2307.19 2611.7L2305.49 1992.04C2305.5 1994.45 2303.91 1996.86 2300.73 1998.69C2294.4 2002.34 2284.19 2002.34 2277.91 1998.69C2274.79 1996.88 2273.23 1994.5 2273.22 1992.13Z" fill="#505050"/>
</g>
<g id="Group_86">
<path id="Vector_81" d="M2277.99 1985.47C2271.66 1989.12 2271.63 1995.04 2277.92 1998.69C2284.2 2002.34 2294.41 2002.34 2300.74 1998.69C2307.06 1995.04 2307.09 1989.13 2300.81 1985.48C2294.52 1981.82 2284.3 1981.82 2277.99 1985.47Z" fill="#B6B7B7"/>
</g>
</g>
</g>
<g id="Group_87">
<g id="desk_4_">
<path id="Vector_82" d="M2869.36 1678.75L2342.85 1982.73L1184.54 1313.98L1711 1009.98L2869.36 1678.75Z" fill="white"/>
<path id="Vector_83" d="M2342.85 1982.73L2343.15 2043.35L1184.54 1374.77V1313.98L2342.85 1982.73Z" fill="#E4E4E4"/>
</g>
<path id="Vector_84" d="M2869.36 1678.75L2342.85 1982.73L2343.15 2043.35L2869.36 1739.55V1678.75Z" fill="#CFCFCE"/>
</g>
</g>
</g>
<g id="monitor">
<g id="monitor_2">
<g id="Group_88">
<path id="Vector_85" d="M2380.41 1487.14L2227.28 1575.55L2043.53 1469.46L2196.66 1381.06L2380.41 1487.14Z" fill="#E5E5E5"/>
<path id="Vector_86" d="M2237.74 1493.38C2274.53 1493.38 2304.35 1479.43 2304.35 1462.23C2304.35 1445.03 2274.53 1431.08 2237.74 1431.08C2200.95 1431.08 2171.13 1445.03 2171.13 1462.23C2171.13 1479.43 2200.95 1493.38 2237.74 1493.38Z" fill="white"/>
<path id="Vector_87" d="M2257.91 1487.14L2196.66 1451.78V1274.97L2257.91 1310.33V1487.14Z" fill="#D8D9D8"/>
<path id="Vector_88" d="M2257.91 1487.14L2288.53 1469.46V1292.65L2257.91 1310.33V1487.14Z" fill="#A7A6A6"/>
</g>
<path id="Vector_89" d="M2610.09 1107V1566.71L1905.72 1160.04V700.33L2610.09 1107Z" fill="#333333"/>
<path id="Vector_90" d="M2594.78 1115.84L1921.03 726.85V1151.2L2594.78 1540.19V1115.84Z" fill="#EAA62F"/>
<path id="Vector_91" d="M2610.09 1107L2625.4 1098.16V1557.87L2610.09 1566.71V1107Z" fill="#212121"/>
<path id="Vector_92" d="M2625.4 1098.16L1921.03 691.49L1905.72 700.33L2610.09 1107L2625.4 1098.16Z" fill="#525252"/>
<path id="Vector_93" d="M2227.28 1575.55V1585.14L2043.53 1480.07V1469.46L2227.28 1575.55Z" fill="#D8D9D8"/>
<path id="Vector_94" d="M2380.41 1487.14L2227.28 1575.55V1585.14L2380.41 1497.11V1487.14Z" fill="#A7A6A6"/>
<path id="Vector_95" d="M1951.66 1183.03V1176.3L1930.3 1163.63V1170.7L1951.66 1183.03Z" fill="white"/>
<path id="Vector_96" d="M1958.42 1186.93V1179.58L1962.19 1181.78V1189.11L1958.42 1186.93Z" fill="white"/>
<path id="Vector_97" d="M1964.72 1190.57V1183.21L1968.49 1185.41V1192.74L1964.72 1190.57Z" fill="white"/>
<path id="Vector_98" d="M1971.07 1194.24V1186.88L1974.84 1189.08V1196.42L1971.07 1194.24Z" fill="white"/>
<path id="Vector_99" d="M1977.36 1197.87V1190.51L1981.13 1192.71V1200.05L1977.36 1197.87Z" fill="white"/>
</g>
<g id="app">
<g id="Group_89">
<g id="Group_90">
<path id="Vector_100" d="M2019.23 1169.7V822.4C2019.23 816.08 2023.71 813.49 2029.19 816.65L2465.68 1068.66C2471.16 1071.82 2475.64 1079.58 2475.64 1085.9V1433.2C2475.64 1439.52 2471.16 1442.11 2465.68 1438.95L2029.19 1186.94C2023.71 1183.78 2019.23 1176.02 2019.23 1169.7Z" fill="white"/>
<path id="Vector_101" d="M2019.23 1160.62V831.47L2475.63 1094.97V1424.12L2019.23 1160.62Z" fill="#364A5F"/>
<path id="Vector_102" d="M2030.91 1177.37C2030.91 1174.73 2032.76 1173.66 2035.05 1174.98C2037.34 1176.3 2039.19 1179.51 2039.19 1182.16C2039.19 1184.81 2037.34 1185.87 2035.05 1184.55C2032.76 1183.23 2030.91 1180.01 2030.91 1177.37Z" fill="#9AB359"/>
<path id="Vector_103" d="M2043.76 1184.8C2043.76 1182.16 2045.61 1181.09 2047.9 1182.41C2050.19 1183.73 2052.04 1186.94 2052.04 1189.59C2052.04 1192.23 2050.19 1193.3 2047.9 1191.98C2045.62 1190.65 2043.76 1187.44 2043.76 1184.8Z" fill="#F9C623"/>
<path id="Vector_104" d="M2056.62 1192.22C2056.62 1189.58 2058.47 1188.51 2060.76 1189.83C2063.05 1191.15 2064.9 1194.36 2064.9 1197.01C2064.9 1199.66 2063.05 1200.72 2060.76 1199.4C2058.47 1198.07 2056.62 1194.86 2056.62 1192.22Z" fill="#ED6C71"/>
</g>
<path id="Vector_105" d="M2446.58 1407.35V1078.21L2475.63 1094.97V1424.12L2446.58 1407.35Z" fill="#4D7DBF"/>
<g id="Group_91">
<path id="Vector_106" opacity="0.5" d="M2456.15 1372.04L2466.07 1377.76C2468.31 1379.05 2470.14 1382.22 2470.14 1384.8V1392.34C2470.14 1394.92 2468.31 1395.98 2466.07 1394.69L2456.15 1388.97C2453.91 1387.68 2452.08 1384.51 2452.08 1381.93V1374.39C2452.08 1371.81 2453.91 1370.75 2456.15 1372.04Z" fill="white"/>
<path id="Vector_107" opacity="0.5" d="M2456.15 1348.85L2466.07 1354.57C2468.31 1355.86 2470.14 1359.03 2470.14 1361.61V1369.15C2470.14 1371.73 2468.31 1372.79 2466.07 1371.5L2456.15 1365.77C2453.91 1364.48 2452.08 1361.31 2452.08 1358.73V1351.19C2452.08 1348.61 2453.91 1347.55 2456.15 1348.85Z" fill="white"/>
<path id="Vector_108" opacity="0.5" d="M2456.15 1325.65L2466.07 1331.38C2468.31 1332.67 2470.14 1335.84 2470.14 1338.42V1345.96C2470.14 1348.54 2468.31 1349.6 2466.07 1348.31L2456.15 1342.59C2453.91 1341.3 2452.08 1338.13 2452.08 1335.55V1328C2452.08 1325.42 2453.91 1324.36 2456.15 1325.65Z" fill="white"/>
<path id="Vector_109" opacity="0.5" d="M2456.15 1302.45L2466.07 1308.17C2468.31 1309.46 2470.14 1312.63 2470.14 1315.21V1322.75C2470.14 1325.33 2468.31 1326.39 2466.07 1325.1L2456.15 1319.38C2453.91 1318.09 2452.08 1314.92 2452.08 1312.34V1304.8C2452.08 1302.22 2453.91 1301.16 2456.15 1302.45Z" fill="white"/>
<path id="Vector_110" opacity="0.5" d="M2456.15 1279.26L2466.07 1284.98C2468.31 1286.27 2470.14 1289.44 2470.14 1292.02V1299.56C2470.14 1302.14 2468.31 1303.2 2466.07 1301.91L2456.15 1296.19C2453.91 1294.9 2452.08 1291.73 2452.08 1289.15V1281.61C2452.08 1279.02 2453.91 1277.97 2456.15 1279.26Z" fill="white"/>
</g>
</g>
<g id="Group_92">
<path id="Vector_111" d="M2321.63 1302L2430.14 1364.65C2430.87 1365.07 2431.46 1366.09 2431.46 1366.93V1372.61C2431.46 1373.45 2430.87 1373.79 2430.14 1373.37L2321.63 1310.72C2320.9 1310.3 2320.31 1309.28 2320.31 1308.44V1302.76C2320.31 1301.92 2320.9 1301.58 2321.63 1302Z" fill="#EE4583"/>
<path id="Vector_112" d="M2355.22 1304.76L2417.14 1340.51C2417.87 1340.93 2418.46 1341.95 2418.46 1342.79V1348.47C2418.46 1349.31 2417.87 1349.65 2417.14 1349.23L2355.22 1313.48C2354.49 1313.06 2353.9 1312.04 2353.9 1311.2V1305.52C2353.9 1304.68 2354.49 1304.34 2355.22 1304.76Z" fill="#B0D23C"/>
<path id="Vector_113" d="M2326.92 1271.78L2396.4 1311.89C2397.13 1312.31 2397.72 1313.33 2397.72 1314.17V1319.85C2397.72 1320.69 2397.13 1321.03 2396.4 1320.61L2326.92 1280.5C2326.19 1280.08 2325.6 1279.06 2325.6 1278.22V1272.54C2325.6 1271.7 2326.19 1271.36 2326.92 1271.78Z" fill="white"/>
<path id="Vector_114" d="M2287.88 1232.61L2396.39 1295.26C2397.12 1295.68 2397.71 1296.7 2397.71 1297.54V1303.22C2397.71 1304.06 2397.12 1304.4 2396.39 1303.98L2287.88 1241.33C2287.15 1240.91 2286.56 1239.89 2286.56 1239.05V1233.37C2286.57 1232.53 2287.16 1232.19 2287.88 1232.61Z" fill="#71CEE6"/>
<path id="Vector_115" d="M2374.41 1265.93L2417.13 1290.6C2417.86 1291.02 2418.45 1292.04 2418.45 1292.88V1298.56C2418.45 1299.4 2417.86 1299.74 2417.13 1299.32L2374.41 1274.65C2373.68 1274.23 2373.09 1273.21 2373.09 1272.37V1266.69C2373.09 1265.85 2373.68 1265.51 2374.41 1265.93Z" fill="#B0D23C"/>
<path id="Vector_116" d="M2348.55 1234.36L2417.14 1273.96C2417.87 1274.38 2418.46 1275.4 2418.46 1276.24V1281.92C2418.46 1282.76 2417.87 1283.1 2417.14 1282.68L2348.55 1243.08C2347.82 1242.66 2347.23 1241.64 2347.23 1240.8V1235.12C2347.23 1234.28 2347.82 1233.94 2348.55 1234.36Z" fill="white"/>
<path id="Vector_117" d="M2372.75 1231.7L2396.39 1245.35C2397.12 1245.77 2397.71 1246.79 2397.71 1247.63V1253.31C2397.71 1254.15 2397.12 1254.49 2396.39 1254.07L2372.75 1240.42C2372.02 1240 2371.43 1238.98 2371.43 1238.14V1232.46C2371.44 1231.62 2372.03 1231.28 2372.75 1231.7Z" fill="white"/>
<path id="Vector_118" d="M2237.4 1236.74L2345.91 1299.39C2346.64 1299.81 2347.23 1300.83 2347.23 1301.67V1307.35C2347.23 1308.19 2346.64 1308.53 2345.91 1308.11L2237.4 1245.46C2236.67 1245.04 2236.08 1244.02 2236.08 1243.18V1237.5C2236.09 1236.66 2236.68 1236.32 2237.4 1236.74Z" fill="#A486BE"/>
<path id="Vector_119" d="M2253.75 1229.54L2317.5 1266.35C2318.23 1266.77 2318.82 1267.79 2318.82 1268.63V1274.31C2318.82 1275.15 2318.23 1275.49 2317.5 1275.07L2253.75 1238.26C2253.02 1237.84 2252.43 1236.82 2252.43 1235.98V1230.3C2252.44 1229.46 2253.02 1229.12 2253.75 1229.54Z" fill="#EE4583"/>
<path id="Vector_120" d="M2233.88 1201.43L2278.75 1227.34C2279.48 1227.76 2280.07 1228.78 2280.07 1229.62V1235.3C2280.07 1236.14 2279.48 1236.48 2278.75 1236.06L2233.88 1210.15C2233.15 1209.73 2232.56 1208.71 2232.56 1207.87V1202.19C2232.56 1201.35 2233.15 1201.01 2233.88 1201.43Z" fill="#B0D23C"/>
<path id="Vector_121" d="M2256.12 1197.64L2364.63 1260.29C2365.36 1260.71 2365.95 1261.73 2365.95 1262.57V1268.25C2365.95 1269.09 2365.36 1269.43 2364.63 1269.01L2256.12 1206.36C2255.39 1205.94 2254.8 1204.92 2254.8 1204.08V1198.4C2254.81 1197.56 2255.4 1197.22 2256.12 1197.64Z" fill="#EE4583"/>
<path id="Vector_122" d="M2286.94 1198.8L2339.88 1229.37C2340.61 1229.79 2341.2 1230.81 2341.2 1231.65V1237.33C2341.2 1238.17 2340.61 1238.51 2339.88 1238.09L2286.94 1207.52C2286.21 1207.1 2285.62 1206.08 2285.62 1205.24V1199.56C2285.63 1198.72 2286.21 1198.38 2286.94 1198.8Z" fill="#A486BE"/>
<path id="Vector_123" d="M2314.73 1198.2L2362.27 1225.64C2363 1226.06 2363.59 1227.08 2363.59 1227.92V1233.6C2363.59 1234.44 2363 1234.78 2362.27 1234.36L2314.73 1206.92C2314 1206.5 2313.41 1205.48 2313.41 1204.64V1198.96C2313.41 1198.12 2314 1197.78 2314.73 1198.2Z" fill="white"/>
<path id="Vector_124" d="M2157.27 1190.48L2229.04 1231.92C2229.77 1232.34 2230.36 1233.36 2230.36 1234.2V1239.88C2230.36 1240.72 2229.77 1241.06 2229.04 1240.64L2157.27 1199.2C2156.54 1198.78 2155.95 1197.76 2155.95 1196.92V1191.24C2155.96 1190.4 2156.55 1190.06 2157.27 1190.48Z" fill="#71CEE6"/>
<path id="Vector_125" d="M2051.06 1112.52L2122.83 1153.96C2123.56 1154.38 2124.15 1155.4 2124.15 1156.24V1161.92C2124.15 1162.76 2123.56 1163.1 2122.83 1162.68L2051.06 1121.24C2050.33 1120.82 2049.74 1119.8 2049.74 1118.96V1113.28C2049.75 1112.44 2050.33 1112.1 2051.06 1112.52Z" fill="#71CEE6"/>
<path id="Vector_126" d="M2133.59 1160.17L2242.1 1222.82C2242.83 1223.24 2243.42 1224.26 2243.42 1225.1V1230.78C2243.42 1231.62 2242.83 1231.96 2242.1 1231.54L2133.59 1168.89C2132.86 1168.47 2132.27 1167.45 2132.27 1166.61V1160.93C2132.28 1160.09 2132.87 1159.75 2133.59 1160.17Z" fill="#B0D23C"/>
<path id="Vector_127" d="M2113.22 1131.77L2221.73 1194.42C2222.46 1194.84 2223.05 1195.86 2223.05 1196.7V1202.38C2223.05 1203.22 2222.46 1203.56 2221.73 1203.14L2113.22 1140.49C2112.49 1140.07 2111.9 1139.05 2111.9 1138.21V1132.53C2111.91 1131.69 2112.5 1131.35 2113.22 1131.77Z" fill="#EE4583"/>
<path id="Vector_128" d="M2206.82 1169.18L2247.41 1192.61C2248.14 1193.03 2248.73 1194.05 2248.73 1194.89V1200.57C2248.73 1201.41 2248.14 1201.75 2247.41 1201.33L2206.82 1177.9C2206.09 1177.48 2205.5 1176.46 2205.5 1175.62V1169.94C2205.51 1169.1 2206.1 1168.76 2206.82 1169.18Z" fill="white"/>
<path id="Vector_129" d="M2229.56 1149.03L2302.98 1191.42C2303.71 1191.84 2304.3 1192.86 2304.3 1193.7V1199.38C2304.3 1200.22 2303.71 1200.56 2302.98 1200.14L2229.56 1157.75C2228.83 1157.33 2228.24 1156.31 2228.24 1155.47V1149.79C2228.25 1148.95 2228.84 1148.61 2229.56 1149.03Z" fill="#A486BE"/>
<path id="Vector_130" d="M2352.31 1196.88L2430.14 1241.81C2430.87 1242.23 2431.46 1243.25 2431.46 1244.09V1249.77C2431.46 1250.61 2430.87 1250.95 2430.14 1250.53L2352.31 1205.6C2351.58 1205.18 2350.99 1204.16 2350.99 1203.32V1197.64C2350.99 1196.8 2351.58 1196.46 2352.31 1196.88Z" fill="#71CEE6"/>
<path id="Vector_131" d="M2355.22 1181.92L2417.14 1217.67C2417.87 1218.09 2418.46 1219.11 2418.46 1219.95V1225.63C2418.46 1226.47 2417.87 1226.81 2417.14 1226.39L2355.22 1190.64C2354.49 1190.22 2353.9 1189.2 2353.9 1188.36V1182.68C2353.9 1181.84 2354.49 1181.5 2355.22 1181.92Z" fill="white"/>
<path id="Vector_132" d="M2326.92 1148.94L2396.4 1189.05C2397.13 1189.47 2397.72 1190.49 2397.72 1191.33V1197.01C2397.72 1197.85 2397.13 1198.19 2396.4 1197.77L2326.92 1157.66C2326.19 1157.24 2325.6 1156.22 2325.6 1155.38V1149.7C2325.6 1148.86 2326.19 1148.52 2326.92 1148.94Z" fill="#B0D23C"/>
<path id="Vector_133" d="M2287.88 1109.77L2396.39 1172.42C2397.12 1172.84 2397.71 1173.86 2397.71 1174.7V1180.38C2397.71 1181.22 2397.12 1181.56 2396.39 1181.14L2287.88 1118.49C2287.15 1118.07 2286.56 1117.05 2286.56 1116.21V1110.53C2286.57 1109.69 2287.16 1109.35 2287.88 1109.77Z" fill="white"/>
<path id="Vector_134" d="M2236.1 1009.1L2278.82 1033.77C2279.55 1034.19 2280.14 1035.21 2280.14 1036.05V1041.73C2280.14 1042.57 2279.55 1042.91 2278.82 1042.49L2236.1 1017.82C2235.37 1017.4 2234.78 1016.38 2234.78 1015.54V1009.86C2234.79 1009.02 2235.38 1008.68 2236.1 1009.1Z" fill="white"/>
<path id="Vector_135" d="M2348.55 1111.52L2417.14 1151.12C2417.87 1151.54 2418.46 1152.56 2418.46 1153.4V1159.08C2418.46 1159.92 2417.87 1160.26 2417.14 1159.84L2348.55 1120.24C2347.82 1119.82 2347.23 1118.8 2347.23 1117.96V1112.28C2347.23 1111.44 2347.82 1111.1 2348.55 1111.52Z" fill="#A486BE"/>
<path id="Vector_136" d="M2372.75 1108.86L2396.39 1122.51C2397.12 1122.93 2397.71 1123.95 2397.71 1124.79V1130.47C2397.71 1131.31 2397.12 1131.65 2396.39 1131.23L2372.75 1117.58C2372.02 1117.16 2371.43 1116.14 2371.43 1115.3V1109.62C2371.44 1108.78 2372.03 1108.44 2372.75 1108.86Z" fill="white"/>
<path id="Vector_137" d="M2237.4 1113.9L2345.91 1176.55C2346.64 1176.97 2347.23 1177.99 2347.23 1178.83V1184.51C2347.23 1185.35 2346.64 1185.69 2345.91 1185.27L2237.4 1122.62C2236.67 1122.2 2236.08 1121.18 2236.08 1120.34V1114.66C2236.09 1113.82 2236.68 1113.48 2237.4 1113.9Z" fill="#A486BE"/>
<path id="Vector_138" d="M2253.75 1106.7L2317.5 1143.51C2318.23 1143.93 2318.82 1144.95 2318.82 1145.79V1151.47C2318.82 1152.31 2318.23 1152.65 2317.5 1152.23L2253.75 1115.42C2253.02 1115 2252.43 1113.98 2252.43 1113.14V1107.46C2252.44 1106.62 2253.02 1106.28 2253.75 1106.7Z" fill="#EE4583"/>
<path id="Vector_139" d="M2233.88 1078.59L2278.75 1104.5C2279.48 1104.92 2280.07 1105.94 2280.07 1106.78V1112.46C2280.07 1113.3 2279.48 1113.64 2278.75 1113.22L2233.88 1087.31C2233.15 1086.89 2232.56 1085.87 2232.56 1085.03V1079.35C2232.56 1078.51 2233.15 1078.17 2233.88 1078.59Z" fill="white"/>
<path id="Vector_140" d="M2117.82 940.8L2226.33 1003.45C2227.06 1003.87 2227.65 1004.89 2227.65 1005.73V1011.41C2227.65 1012.25 2227.06 1012.59 2226.33 1012.17L2117.82 949.52C2117.09 949.1 2116.5 948.08 2116.5 947.24V941.56C2116.5 940.73 2117.09 940.39 2117.82 940.8Z" fill="#EE4583"/>
<path id="Vector_141" d="M2286.94 1075.95L2339.88 1106.52C2340.61 1106.94 2341.2 1107.96 2341.2 1108.8V1114.48C2341.2 1115.32 2340.61 1115.66 2339.88 1115.24L2286.94 1084.68C2286.21 1084.26 2285.62 1083.24 2285.62 1082.4V1076.72C2285.63 1075.87 2286.21 1075.53 2286.94 1075.95Z" fill="#71CEE6"/>
<path id="Vector_142" d="M2350.41 1075.09L2419 1114.69C2419.73 1115.11 2420.32 1116.13 2420.32 1116.97V1122.65C2420.32 1123.49 2419.73 1123.83 2419 1123.41L2350.41 1083.81C2349.68 1083.39 2349.09 1082.37 2349.09 1081.53V1075.85C2349.09 1075.01 2349.68 1074.67 2350.41 1075.09Z" fill="#EE4583"/>
<path id="Vector_143" d="M2288.8 1039.52L2341.74 1070.09C2342.47 1070.51 2343.06 1071.53 2343.06 1072.37V1078.05C2343.06 1078.89 2342.47 1079.23 2341.74 1078.81L2288.8 1048.24C2288.07 1047.82 2287.48 1046.8 2287.48 1045.96V1040.28C2287.49 1039.44 2288.08 1039.1 2288.8 1039.52Z" fill="#B0D23C"/>
<path id="Vector_144" d="M2314.73 1075.36L2362.27 1102.8C2363 1103.22 2363.59 1104.24 2363.59 1105.08V1110.76C2363.59 1111.6 2363 1111.94 2362.27 1111.52L2314.73 1084.08C2314 1083.66 2313.41 1082.64 2313.41 1081.8V1076.12C2313.41 1075.28 2314 1074.94 2314.73 1075.36Z" fill="#71CEE6"/>
<path id="Vector_145" d="M2157.27 1067.63L2229.04 1109.07C2229.77 1109.49 2230.36 1110.51 2230.36 1111.35V1117.03C2230.36 1117.87 2229.77 1118.21 2229.04 1117.79L2157.27 1076.35C2156.54 1075.93 2155.95 1074.91 2155.95 1074.07V1068.39C2155.96 1067.56 2156.55 1067.22 2157.27 1067.63Z" fill="#71CEE6"/>
<path id="Vector_146" d="M2174.91 1044.55L2221.73 1071.58C2222.46 1072 2223.05 1073.02 2223.05 1073.86V1079.54C2223.05 1080.38 2222.46 1080.72 2221.73 1080.3L2174.91 1053.27C2174.18 1052.85 2173.59 1051.83 2173.59 1050.99V1045.31C2173.6 1044.47 2174.19 1044.13 2174.91 1044.55Z" fill="white"/>
<path id="Vector_147" d="M2302.16 1101.38L2347.03 1127.29C2347.76 1127.71 2348.35 1128.73 2348.35 1129.57V1135.25C2348.35 1136.09 2347.76 1136.43 2347.03 1136.01L2302.16 1110.1C2301.43 1109.68 2300.84 1108.66 2300.84 1107.82V1102.14C2300.84 1101.3 2301.43 1100.96 2302.16 1101.38Z" fill="#EE4583"/>
<path id="Vector_148" d="M2243.19 1067.33L2290.01 1094.36C2290.74 1094.78 2291.33 1095.8 2291.33 1096.64V1102.32C2291.33 1103.16 2290.74 1103.5 2290.01 1103.08L2243.19 1076.05C2242.46 1075.63 2241.87 1074.61 2241.87 1073.77V1068.09C2241.87 1067.25 2242.46 1066.91 2243.19 1067.33Z" fill="#B0D23C"/>
<path id="Vector_149" d="M2356.84 1132.95L2397.43 1156.38C2398.16 1156.8 2398.75 1157.82 2398.75 1158.66V1164.34C2398.75 1165.18 2398.16 1165.52 2397.43 1165.1L2356.84 1141.67C2356.11 1141.25 2355.52 1140.23 2355.52 1139.39V1133.71C2355.53 1132.87 2356.12 1132.53 2356.84 1132.95Z" fill="#A486BE"/>
<path id="Vector_150" d="M2229.56 1026.19L2302.98 1068.58C2303.71 1069 2304.3 1070.02 2304.3 1070.86V1076.54C2304.3 1077.38 2303.71 1077.72 2302.98 1077.3L2229.56 1034.91C2228.83 1034.49 2228.24 1033.47 2228.24 1032.63V1026.95C2228.25 1026.11 2228.84 1025.77 2229.56 1026.19Z" fill="#EE4583"/>
</g>
</g>
</g>
<g id="pc-computer">
<path id="Vector_151" d="M1285.69 831.1L1457.37 930.22V1383.33L1285.69 1284.21V831.1Z" fill="#595A5C"/>
<path id="Vector_152" d="M1285.69 831.1L1702.62 590.39L1874.3 689.51L1457.37 930.22L1285.69 831.1Z" fill="#939598"/>
<path id="Vector_153" d="M1457.37 1383.33L1874.3 1142.61V689.51L1457.37 930.22V1383.33Z" fill="#818285"/>
<path id="Vector_154" d="M1632.31 909.36L1625.06 913.63L1550.96 1068.64V1246.96L1827.75 1087.72L1828.55 795.41L1825.24 797.18L1632.31 909.36Z" fill="#6E6F72"/>
<path id="Vector_155" d="M1555.47 1071.82L1629.04 916.06L1825.24 802.78V1085.98L1556.53 1242.35L1555.47 1071.82Z" fill="#A8AAAD"/>
<path id="Vector_156" d="M1285.69 887.74L1457.37 986.86V1043.5L1285.69 944.38V887.74Z" fill="#434446"/>
<path id="Vector_157" d="M1297.95 915.29V931.39C1297.95 935.05 1299.9 938.43 1303.06 940.27L1437.82 1018.64C1440.82 1020.38 1444.57 1018.22 1444.57 1014.76V999.2C1444.57 996.13 1442.94 993.3 1440.29 991.76L1303.41 912.16C1300.99 910.75 1297.95 912.49 1297.95 915.29Z" fill="#595A5C"/>
<g id="usb-ports">
<path id="Vector_158" d="M1296.38 865.67V876.75L1320.91 890.76V879.83L1296.38 865.67Z" fill="#4C4E50"/>
<path id="Vector_159" d="M1296.38 876.75L1305.72 871.06L1296.38 865.67V876.75Z" fill="#3C3D3E"/>
<path id="Vector_160" d="M1298.71 870.93V874.51L1317.38 884.85V881.53L1298.71 870.93Z" fill="#1C76BC"/>
<path id="Vector_161" d="M1298.71 870.93L1302.07 868.95L1320.64 879.66L1317.38 881.53L1298.71 870.93Z" fill="#3082C5"/>
<path id="Vector_162" d="M1317.38 884.85L1320.91 882.73V879.83L1320.64 879.66L1317.38 881.53V884.85Z" fill="#2A7FC2"/>
</g>
<g id="usb-ports_1_">
<path id="Vector_163" d="M1325.2 881.87V892.95L1349.72 906.97V896.03L1325.2 881.87Z" fill="#4C4E50"/>
<path id="Vector_164" d="M1325.2 892.95L1334.53 887.26L1325.2 881.87V892.95Z" fill="#3C3D3E"/>
<path id="Vector_165" d="M1327.53 887.13V890.71L1346.19 901.05V897.73L1327.53 887.13Z" fill="#1C76BC"/>
<path id="Vector_166" d="M1327.53 887.13L1330.88 885.15L1349.46 895.86L1346.19 897.73L1327.53 887.13Z" fill="#3082C5"/>
<path id="Vector_167" d="M1346.19 901.05L1349.72 898.93V896.03L1349.46 895.86L1346.19 897.73V901.05Z" fill="#2A7FC2"/>
</g>
<g id="usb-ports_3_">
<path id="Vector_168" d="M1356.94 901.05V912.13L1381.46 926.15V915.21L1356.94 901.05Z" fill="#4C4E50"/>
<path id="Vector_169" d="M1356.94 912.13L1366.27 906.44L1356.94 901.05V912.13Z" fill="#3C3D3E"/>
<path id="Vector_170" d="M1359.27 906.31V909.89L1377.93 920.23V916.91L1359.27 906.31Z" fill="#1C76BC"/>
<path id="Vector_171" d="M1359.27 906.31L1362.62 904.33L1381.19 915.04L1377.93 916.91L1359.27 906.31Z" fill="#3082C5"/>
<path id="Vector_172" d="M1377.93 920.23L1381.46 918.11V915.21L1381.19 915.04L1377.93 916.91V920.23Z" fill="#2A7FC2"/>
</g>
<g id="usb-ports_2_">
<path id="Vector_173" d="M1390.79 920.23V931.31L1415.31 945.33V934.39L1390.79 920.23Z" fill="#4C4E50"/>
<path id="Vector_174" d="M1390.79 931.31L1400.12 925.62L1390.79 920.23V931.31Z" fill="#3C3D3E"/>
<path id="Vector_175" d="M1393.12 925.49V929.07L1411.78 939.41V936.09L1393.12 925.49Z" fill="#1C76BC"/>
<path id="Vector_176" d="M1393.12 925.49L1396.47 923.51L1415.04 934.22L1411.78 936.09L1393.12 925.49Z" fill="#3082C5"/>
<path id="Vector_177" d="M1411.78 939.41L1415.31 937.29V934.39L1415.04 934.22L1411.78 936.09V939.41Z" fill="#2A7FC2"/>
</g>
<path id="Vector_178" d="M1310.22 986.86L1431.84 1056.81V1340.27L1309.68 1269.74L1310.22 986.86Z" fill="#494A4B"/>
<path id="Vector_179" d="M1334.9 831.01L1457.37 901.9L1825.24 689.51L1702.62 618.71L1334.9 831.01Z" fill="#7E8083"/>
<g id="Group_93">
<path id="Vector_180" d="M1435.44 935.26C1442.29 939.21 1447.82 948.8 1447.8 956.66C1447.78 964.53 1442.21 967.7 1435.36 963.75C1428.51 959.8 1422.98 950.21 1423 942.34C1423.02 934.48 1428.59 931.31 1435.44 935.26Z" fill="#3C3D3E"/>
</g>
<g id="Group_94">
<path id="Vector_181" d="M1435.44 936.73C1441.58 940.27 1446.54 948.87 1446.52 955.92C1446.5 962.98 1441.5 965.82 1435.37 962.28C1429.23 958.74 1424.27 950.14 1424.29 943.09C1424.3 936.04 1429.3 933.19 1435.44 936.73Z" fill="#646566"/>
</g>
<g id="Group_95">
<path id="Vector_182" d="M1433.86 943.83L1433.83 952.99L1431.58 951.69L1431.6 942.52L1433.86 943.83Z" fill="#FEDF40"/>
</g>
<g id="Group_96">
<path id="Vector_183" d="M1437.89 945.89L1437.86 955.05L1435.61 953.75L1435.64 944.58L1437.89 945.89Z" fill="#FEDF40"/>
</g>
</g>
<g id="keyboard">
<path id="Vector_184" d="M2268.28 1698.61L2139.73 1772.83C2137.89 1773.89 2135.48 1774.43 2133.06 1774.44C2130.6 1774.45 2128.13 1773.91 2126.26 1772.83L1794.5 1581.3C1790.79 1579.16 1790.79 1575.66 1794.5 1573.52L1923.05 1499.3C1926.76 1497.16 1932.82 1497.16 1936.53 1499.3L2208.95 1656.58L2268.28 1690.83C2271.98 1692.97 2271.98 1696.47 2268.28 1698.61Z" fill="#C2C2C6"/>
<path id="Vector_185" d="M1791.72 1577.45L1791.73 1572.85L1794.61 1570.78L1795.83 1576V1579.26L1791.72 1577.45Z" fill="#C2C2C6"/>
<path id="Vector_186" d="M2271.05 1694.55V1690.01L2262.23 1695.03L2259.42 1700.9L2271.05 1694.55Z" fill="#ABABAD"/>
<path id="Vector_187" d="M2268.28 1698.61L2139.73 1772.83C2137.89 1773.89 2135.48 1774.43 2133.06 1774.44V1745.34L2208.94 1656.58L2208.96 1656.57L2268.29 1690.82C2271.98 1692.97 2271.98 1696.47 2268.28 1698.61Z" fill="#ABABAD"/>
<path id="Vector_188" d="M2126.24 1768.06L1794.5 1576.53C1790.79 1574.39 1790.79 1570.89 1794.5 1568.75L1923.05 1494.53C1926.76 1492.39 1932.82 1492.39 1936.53 1494.53L2268.27 1686.06C2271.98 1688.2 2271.98 1691.7 2268.27 1693.84L2139.72 1768.06C2136.02 1770.2 2129.95 1770.2 2126.24 1768.06Z" fill="#D1D4DB"/>
<g id="Group_97">
<g id="Group_98">
<path id="Vector_189" d="M1928.63 1543.61L1911.82 1533.9C1910.78 1533.3 1910.78 1532.32 1911.82 1531.72L1927.4 1522.72C1928.44 1522.12 1930.14 1522.12 1931.18 1522.72L1947.99 1532.43C1949.03 1533.03 1949.03 1534.01 1947.99 1534.61L1932.41 1543.61C1931.37 1544.21 1929.67 1544.21 1928.63 1543.61Z" fill="#EDEEF2"/>
<path id="Vector_190" d="M1952.23 1557.23L1935.42 1547.52C1934.38 1546.92 1934.38 1545.94 1935.42 1545.34L1951 1536.34C1952.04 1535.74 1953.74 1535.74 1954.78 1536.34L1971.59 1546.05C1972.63 1546.65 1972.63 1547.63 1971.59 1548.23L1956.01 1557.23C1954.97 1557.83 1953.27 1557.83 1952.23 1557.23Z" fill="#EDEEF2"/>
<path id="Vector_191" d="M1975.84 1570.86L1959.03 1561.15C1957.99 1560.55 1957.99 1559.57 1959.03 1558.97L1974.61 1549.97C1975.65 1549.37 1977.35 1549.37 1978.39 1549.97L1995.2 1559.68C1996.24 1560.28 1996.24 1561.26 1995.2 1561.86L1979.62 1570.86C1978.57 1571.46 1976.87 1571.46 1975.84 1570.86Z" fill="#EDEEF2"/>
<path id="Vector_192" d="M1999.44 1584.49L1982.63 1574.78C1981.59 1574.18 1981.59 1573.2 1982.63 1572.6L1998.21 1563.6C1999.25 1563 2000.95 1563 2001.99 1563.6L2018.8 1573.31C2019.84 1573.91 2019.84 1574.89 2018.8 1575.49L2003.22 1584.49C2002.18 1585.09 2000.48 1585.09 1999.44 1584.49Z" fill="#EDEEF2"/>
<path id="Vector_193" d="M2023.04 1598.12L2006.23 1588.41C2005.19 1587.81 2005.19 1586.83 2006.23 1586.23L2021.81 1577.23C2022.85 1576.63 2024.55 1576.63 2025.59 1577.23L2042.4 1586.94C2043.44 1587.54 2043.44 1588.52 2042.4 1589.12L2026.82 1598.12C2025.78 1598.72 2024.08 1598.72 2023.04 1598.12Z" fill="#EDEEF2"/>
<path id="Vector_194" d="M2046.41 1611.61L2029.6 1601.9C2028.56 1601.3 2028.56 1600.32 2029.6 1599.72L2045.18 1590.72C2046.22 1590.12 2047.92 1590.12 2048.96 1590.72L2065.77 1600.43C2066.81 1601.03 2066.81 1602.01 2065.77 1602.61L2050.19 1611.61C2049.15 1612.21 2047.45 1612.21 2046.41 1611.61Z" fill="#EDEEF2"/>
<path id="Vector_195" d="M2069.9 1625.17L2053.09 1615.46C2052.05 1614.86 2052.05 1613.88 2053.09 1613.28L2068.67 1604.28C2069.71 1603.68 2071.41 1603.68 2072.45 1604.28L2089.26 1613.99C2090.3 1614.59 2090.3 1615.57 2089.26 1616.17L2073.68 1625.17C2072.64 1625.77 2070.94 1625.77 2069.9 1625.17Z" fill="#EDEEF2"/>
<path id="Vector_196" d="M2093.62 1638.87L2076.81 1629.16C2075.77 1628.56 2075.77 1627.58 2076.81 1626.98L2092.39 1617.98C2093.43 1617.38 2095.13 1617.38 2096.17 1617.98L2112.98 1627.69C2114.02 1628.29 2114.02 1629.27 2112.98 1629.87L2097.4 1638.87C2096.36 1639.47 2094.66 1639.47 2093.62 1638.87Z" fill="#EDEEF2"/>
<path id="Vector_197" d="M2117.11 1652.43L2100.3 1642.72C2099.26 1642.12 2099.26 1641.14 2100.3 1640.54L2115.88 1631.54C2116.92 1630.94 2118.62 1630.94 2119.66 1631.54L2136.47 1641.25C2137.51 1641.85 2137.51 1642.83 2136.47 1643.43L2120.89 1652.43C2119.85 1653.03 2118.15 1653.03 2117.11 1652.43Z" fill="#EDEEF2"/>
<path id="Vector_198" d="M2140.71 1666.05L2123.9 1656.34C2122.86 1655.74 2122.86 1654.76 2123.9 1654.16L2139.48 1645.16C2140.52 1644.56 2142.22 1644.56 2143.26 1645.16L2160.07 1654.87C2161.11 1655.47 2161.11 1656.45 2160.07 1657.05L2144.49 1666.05C2143.45 1666.65 2141.75 1666.65 2140.71 1666.05Z" fill="#EDEEF2"/>
<path id="Vector_199" d="M2164.32 1679.68L2147.51 1669.97C2146.47 1669.37 2146.47 1668.39 2147.51 1667.79L2163.09 1658.79C2164.13 1658.19 2165.83 1658.19 2166.87 1658.79L2183.68 1668.5C2184.72 1669.1 2184.72 1670.08 2183.68 1670.68L2168.1 1679.68C2167.05 1680.28 2165.35 1680.28 2164.32 1679.68Z" fill="#EDEEF2"/>
<path id="Vector_200" d="M2187.8 1693.24L2170.99 1683.53C2169.95 1682.93 2169.95 1681.95 2170.99 1681.35L2186.57 1672.35C2187.61 1671.75 2189.31 1671.75 2190.35 1672.35L2207.16 1682.06C2208.2 1682.66 2208.2 1683.64 2207.16 1684.24L2191.58 1693.24C2190.54 1693.84 2188.84 1693.84 2187.8 1693.24Z" fill="#EDEEF2"/>
<path id="Vector_201" d="M1905.02 1529.98L1888.21 1520.27C1887.17 1519.67 1887.17 1518.69 1888.21 1518.09L1903.79 1509.09C1904.83 1508.49 1906.53 1508.49 1907.57 1509.09L1924.38 1518.8C1925.42 1519.4 1925.42 1520.38 1924.38 1520.98L1908.8 1529.98C1907.76 1530.58 1906.06 1530.58 1905.02 1529.98Z" fill="#EDEEF2"/>
</g>
<path id="Vector_202" d="M1986.85 1550.82L1970.04 1541.11C1969 1540.51 1969 1539.53 1970.04 1538.93L1985.62 1529.93C1986.66 1529.33 1988.36 1529.33 1989.4 1529.93L2006.21 1539.64C2007.25 1540.24 2007.25 1541.22 2006.21 1541.82L1990.63 1550.82C1989.59 1551.42 1987.89 1551.42 1986.85 1550.82Z" fill="#EDEEF2"/>
<path id="Vector_203" d="M2010.45 1564.45L1993.64 1554.74C1992.6 1554.14 1992.6 1553.16 1993.64 1552.56L2009.22 1543.56C2010.26 1542.96 2011.96 1542.96 2013 1543.56L2029.81 1553.27C2030.85 1553.87 2030.85 1554.85 2029.81 1555.45L2014.23 1564.45C2013.19 1565.05 2011.49 1565.05 2010.45 1564.45Z" fill="#EDEEF2"/>
<path id="Vector_204" d="M2034.06 1578.08L2017.25 1568.37C2016.21 1567.77 2016.21 1566.79 2017.25 1566.19L2032.83 1557.19C2033.87 1556.59 2035.57 1556.59 2036.61 1557.19L2053.42 1566.9C2054.46 1567.5 2054.46 1568.48 2053.42 1569.08L2037.84 1578.08C2036.79 1578.67 2035.09 1578.67 2034.06 1578.08Z" fill="#EDEEF2"/>
<path id="Vector_205" d="M2057.66 1591.7L2040.85 1581.99C2039.81 1581.39 2039.81 1580.41 2040.85 1579.81L2056.43 1570.81C2057.47 1570.21 2059.17 1570.21 2060.21 1570.81L2077.02 1580.52C2078.06 1581.12 2078.06 1582.1 2077.02 1582.7L2061.44 1591.7C2060.4 1592.3 2058.7 1592.3 2057.66 1591.7Z" fill="#EDEEF2"/>
<path id="Vector_206" d="M2081.27 1605.33L2064.46 1595.62C2063.42 1595.02 2063.42 1594.04 2064.46 1593.44L2080.04 1584.44C2081.08 1583.84 2082.78 1583.84 2083.82 1584.44L2100.63 1594.15C2101.67 1594.75 2101.67 1595.73 2100.63 1596.33L2085.05 1605.33C2084 1605.93 2082.3 1605.93 2081.27 1605.33Z" fill="#EDEEF2"/>
<path id="Vector_207" d="M2104.63 1618.82L2087.82 1609.11C2086.78 1608.51 2086.78 1607.53 2087.82 1606.93L2103.4 1597.93C2104.44 1597.33 2106.14 1597.33 2107.18 1597.93L2123.99 1607.64C2125.03 1608.24 2125.03 1609.22 2123.99 1609.82L2108.41 1618.82C2107.37 1619.42 2105.67 1619.42 2104.63 1618.82Z" fill="#EDEEF2"/>
<path id="Vector_208" d="M2128.12 1632.38L2111.31 1622.67C2110.27 1622.07 2110.27 1621.09 2111.31 1620.49L2126.89 1611.49C2127.93 1610.89 2129.63 1610.89 2130.67 1611.49L2147.48 1621.2C2148.52 1621.8 2148.52 1622.78 2147.48 1623.38L2131.9 1632.38C2130.86 1632.98 2129.16 1632.98 2128.12 1632.38Z" fill="#EDEEF2"/>
<path id="Vector_209" d="M2151.84 1646.08L2135.03 1636.37C2133.99 1635.77 2133.99 1634.79 2135.03 1634.19L2150.61 1625.19C2151.65 1624.59 2153.35 1624.59 2154.39 1625.19L2171.2 1634.9C2172.24 1635.5 2172.24 1636.48 2171.2 1637.08L2155.62 1646.08C2154.58 1646.68 2152.88 1646.68 2151.84 1646.08Z" fill="#EDEEF2"/>
<path id="Vector_210" d="M2175.33 1659.64L2158.52 1649.93C2157.48 1649.33 2157.48 1648.35 2158.52 1647.75L2174.1 1638.75C2175.14 1638.15 2176.84 1638.15 2177.88 1638.75L2194.69 1648.46C2195.73 1649.06 2195.73 1650.04 2194.69 1650.64L2179.11 1659.64C2178.07 1660.24 2176.37 1660.24 2175.33 1659.64Z" fill="#EDEEF2"/>
<path id="Vector_211" d="M2198.93 1673.27L2182.12 1663.56C2181.08 1662.96 2181.08 1661.98 2182.12 1661.38L2197.7 1652.38C2198.74 1651.78 2200.44 1651.78 2201.48 1652.38L2218.29 1662.09C2219.33 1662.69 2219.33 1663.67 2218.29 1664.27L2202.71 1673.27C2201.67 1673.87 2199.97 1673.87 2198.93 1673.27Z" fill="#EDEEF2"/>
<path id="Vector_212" d="M2222.54 1686.89L2205.73 1677.18C2204.69 1676.58 2204.69 1675.6 2205.73 1675L2221.31 1666C2222.35 1665.4 2224.05 1665.4 2225.09 1666L2241.9 1675.71C2242.94 1676.31 2242.94 1677.29 2241.9 1677.89L2226.32 1686.89C2225.27 1687.49 2223.57 1687.49 2222.54 1686.89Z" fill="#EDEEF2"/>
<path id="Vector_213" d="M2246.02 1700.45L2229.21 1690.74C2228.17 1690.14 2228.17 1689.16 2229.21 1688.56L2244.79 1679.56C2245.83 1678.96 2247.53 1678.96 2248.57 1679.56L2265.38 1689.27C2266.42 1689.87 2266.42 1690.85 2265.38 1691.45L2249.8 1700.45C2248.76 1701.05 2247.06 1701.05 2246.02 1700.45Z" fill="#EDEEF2"/>
<path id="Vector_214" d="M2223.55 1713.88L2194.23 1696.95C2193.41 1696.48 2193.41 1695.7 2194.23 1695.23L2210.61 1685.77C2211.43 1685.3 2212.77 1685.3 2213.59 1685.77L2242.91 1702.7C2243.73 1703.17 2243.73 1703.95 2242.91 1704.42L2226.53 1713.88C2225.72 1714.36 2224.37 1714.36 2223.55 1713.88Z" fill="#EDEEF2"/>
<path id="Vector_215" d="M1963.24 1537.19L1946.43 1527.48C1945.39 1526.88 1945.39 1525.9 1946.43 1525.3L1962.01 1516.3C1963.05 1515.7 1964.75 1515.7 1965.79 1516.3L1982.6 1526.01C1983.64 1526.61 1983.64 1527.59 1982.6 1528.19L1967.02 1537.19C1965.98 1537.79 1964.28 1537.79 1963.24 1537.19Z" fill="#EDEEF2"/>
<path id="Vector_216" d="M1939.79 1523.65L1911.08 1507.08C1910.03 1506.48 1910.03 1505.49 1911.08 1504.88L1926.64 1495.9C1927.69 1495.3 1929.4 1495.3 1930.44 1495.9L1959.15 1512.47C1960.2 1513.07 1960.2 1514.06 1959.15 1514.67L1943.59 1523.65C1942.55 1524.26 1940.84 1524.26 1939.79 1523.65Z" fill="#EDEEF2"/>
<g id="Group_99">
<path id="Vector_217" d="M1941.3 1577.22L1924.49 1567.51C1923.45 1566.91 1923.45 1565.93 1924.49 1565.33L1940.07 1556.33C1941.11 1555.73 1942.81 1555.73 1943.85 1556.33L1960.66 1566.04C1961.7 1566.64 1961.7 1567.62 1960.66 1568.22L1945.08 1577.22C1944.04 1577.82 1942.34 1577.82 1941.3 1577.22Z" fill="#EDEEF2"/>
<path id="Vector_218" d="M1964.9 1590.85L1948.09 1581.14C1947.05 1580.54 1947.05 1579.56 1948.09 1578.96L1963.67 1569.96C1964.71 1569.36 1966.41 1569.36 1967.45 1569.96L1984.26 1579.67C1985.3 1580.27 1985.3 1581.25 1984.26 1581.85L1968.68 1590.85C1967.64 1591.45 1965.94 1591.45 1964.9 1590.85Z" fill="#EDEEF2"/>
<path id="Vector_219" d="M1988.51 1604.48L1971.7 1594.77C1970.66 1594.17 1970.66 1593.19 1971.7 1592.59L1987.28 1583.59C1988.32 1582.99 1990.02 1582.99 1991.06 1583.59L2007.87 1593.3C2008.91 1593.9 2008.91 1594.88 2007.87 1595.48L1992.29 1604.48C1991.25 1605.08 1989.55 1605.08 1988.51 1604.48Z" fill="#EDEEF2"/>
<path id="Vector_220" d="M2012.11 1618.11L1995.3 1608.4C1994.26 1607.8 1994.26 1606.82 1995.3 1606.22L2010.88 1597.22C2011.92 1596.62 2013.62 1596.62 2014.66 1597.22L2031.47 1606.93C2032.51 1607.53 2032.51 1608.51 2031.47 1609.11L2015.89 1618.11C2014.85 1618.71 2013.15 1618.71 2012.11 1618.11Z" fill="#EDEEF2"/>
<path id="Vector_221" d="M2035.72 1631.74L2018.91 1622.03C2017.87 1621.43 2017.87 1620.45 2018.91 1619.85L2034.49 1610.85C2035.53 1610.25 2037.23 1610.25 2038.27 1610.85L2055.08 1620.56C2056.12 1621.16 2056.12 1622.14 2055.08 1622.74L2039.5 1631.74C2038.46 1632.34 2036.76 1632.34 2035.72 1631.74Z" fill="#EDEEF2"/>
<path id="Vector_222" d="M2059.08 1645.23L2042.27 1635.52C2041.23 1634.92 2041.23 1633.94 2042.27 1633.34L2057.85 1624.34C2058.89 1623.74 2060.59 1623.74 2061.63 1624.34L2078.44 1634.05C2079.48 1634.65 2079.48 1635.63 2078.44 1636.23L2062.86 1645.23C2061.82 1645.83 2060.12 1645.83 2059.08 1645.23Z" fill="#EDEEF2"/>
<path id="Vector_223" d="M2082.57 1658.79L2065.76 1649.08C2064.72 1648.48 2064.72 1647.5 2065.76 1646.9L2081.34 1637.9C2082.38 1637.3 2084.08 1637.3 2085.12 1637.9L2101.93 1647.61C2102.97 1648.21 2102.97 1649.19 2101.93 1649.79L2086.35 1658.79C2085.31 1659.39 2083.61 1659.39 2082.57 1658.79Z" fill="#EDEEF2"/>
<path id="Vector_224" d="M2106.29 1672.48L2089.48 1662.77C2088.44 1662.17 2088.44 1661.19 2089.48 1660.59L2105.06 1651.59C2106.1 1650.99 2107.8 1650.99 2108.84 1651.59L2125.65 1661.3C2126.69 1661.9 2126.69 1662.88 2125.65 1663.48L2110.07 1672.48C2109.03 1673.08 2107.33 1673.08 2106.29 1672.48Z" fill="#EDEEF2"/>
<path id="Vector_225" d="M2129.78 1686.04L2112.97 1676.33C2111.93 1675.73 2111.93 1674.75 2112.97 1674.15L2128.55 1665.15C2129.59 1664.55 2131.29 1664.55 2132.33 1665.15L2149.14 1674.86C2150.18 1675.46 2150.18 1676.44 2149.14 1677.04L2133.56 1686.04C2132.52 1686.64 2130.82 1686.64 2129.78 1686.04Z" fill="#EDEEF2"/>
<path id="Vector_226" d="M2153.38 1699.67L2136.57 1689.96C2135.53 1689.36 2135.53 1688.38 2136.57 1687.78L2152.15 1678.78C2153.19 1678.18 2154.89 1678.18 2155.93 1678.78L2172.74 1688.49C2173.78 1689.09 2173.78 1690.07 2172.74 1690.67L2157.16 1699.67C2156.12 1700.27 2154.42 1700.27 2153.38 1699.67Z" fill="#EDEEF2"/>
<path id="Vector_227" d="M2176.99 1713.3L2160.18 1703.59C2159.14 1702.99 2159.14 1702.01 2160.18 1701.41L2175.76 1692.41C2176.8 1691.81 2178.5 1691.81 2179.54 1692.41L2196.35 1702.12C2197.39 1702.72 2197.39 1703.7 2196.35 1704.3L2180.77 1713.3C2179.73 1713.9 2178.03 1713.9 2176.99 1713.3Z" fill="#EDEEF2"/>
<path id="Vector_228" d="M2200.47 1726.86L2183.66 1717.15C2182.62 1716.55 2182.62 1715.57 2183.66 1714.97L2199.24 1705.97C2200.28 1705.37 2201.98 1705.37 2203.02 1705.97L2219.83 1715.68C2220.87 1716.28 2220.87 1717.26 2219.83 1717.86L2204.25 1726.86C2203.21 1727.46 2201.51 1727.46 2200.47 1726.86Z" fill="#EDEEF2"/>
<path id="Vector_229" d="M1917.7 1563.6L1900.89 1553.89C1899.85 1553.29 1899.85 1552.31 1900.89 1551.71L1916.47 1542.71C1917.51 1542.11 1919.21 1542.11 1920.25 1542.71L1937.06 1552.42C1938.1 1553.02 1938.1 1554 1937.06 1554.6L1921.48 1563.6C1920.43 1564.2 1918.73 1564.2 1917.7 1563.6Z" fill="#EDEEF2"/>
</g>
<g id="Group_100">
<path id="Vector_230" d="M1924.16 1593.83L1907.35 1584.12C1906.31 1583.52 1906.31 1582.54 1907.35 1581.94L1922.93 1572.94C1923.97 1572.34 1925.67 1572.34 1926.71 1572.94L1943.52 1582.65C1944.56 1583.25 1944.56 1584.23 1943.52 1584.83L1927.94 1593.83C1926.9 1594.43 1925.2 1594.43 1924.16 1593.83Z" fill="#EDEEF2"/>
<path id="Vector_231" d="M1947.76 1607.46L1930.95 1597.75C1929.91 1597.15 1929.91 1596.17 1930.95 1595.57L1946.53 1586.57C1947.57 1585.97 1949.27 1585.97 1950.31 1586.57L1967.12 1596.28C1968.16 1596.88 1968.16 1597.86 1967.12 1598.46L1951.54 1607.46C1950.5 1608.06 1948.8 1608.06 1947.76 1607.46Z" fill="#EDEEF2"/>
<path id="Vector_232" d="M1971.37 1621.09L1954.56 1611.38C1953.52 1610.78 1953.52 1609.8 1954.56 1609.2L1970.14 1600.2C1971.18 1599.6 1972.88 1599.6 1973.92 1600.2L1990.73 1609.91C1991.77 1610.51 1991.77 1611.49 1990.73 1612.09L1975.15 1621.09C1974.11 1621.68 1972.41 1621.68 1971.37 1621.09Z" fill="#EDEEF2"/>
<path id="Vector_233" d="M1994.97 1634.71L1978.16 1625C1977.12 1624.4 1977.12 1623.42 1978.16 1622.82L1993.74 1613.82C1994.78 1613.22 1996.48 1613.22 1997.52 1613.82L2014.33 1623.53C2015.37 1624.13 2015.37 1625.11 2014.33 1625.71L1998.75 1634.71C1997.71 1635.31 1996.01 1635.31 1994.97 1634.71Z" fill="#EDEEF2"/>
<path id="Vector_234" d="M2018.58 1648.34L2001.77 1638.63C2000.73 1638.03 2000.73 1637.05 2001.77 1636.45L2017.35 1627.45C2018.39 1626.85 2020.09 1626.85 2021.13 1627.45L2037.94 1637.16C2038.98 1637.76 2038.98 1638.74 2037.94 1639.34L2022.36 1648.34C2021.32 1648.94 2019.62 1648.94 2018.58 1648.34Z" fill="#EDEEF2"/>
<path id="Vector_235" d="M2041.94 1661.83L2025.13 1652.12C2024.09 1651.52 2024.09 1650.54 2025.13 1649.94L2040.71 1640.94C2041.75 1640.34 2043.45 1640.34 2044.49 1640.94L2061.3 1650.65C2062.34 1651.25 2062.34 1652.23 2061.3 1652.83L2045.72 1661.83C2044.68 1662.43 2042.98 1662.43 2041.94 1661.83Z" fill="#EDEEF2"/>
<path id="Vector_236" d="M2065.43 1675.39L2048.62 1665.68C2047.58 1665.08 2047.58 1664.1 2048.62 1663.5L2064.2 1654.5C2065.24 1653.9 2066.94 1653.9 2067.98 1654.5L2084.79 1664.21C2085.83 1664.81 2085.83 1665.79 2084.79 1666.39L2069.21 1675.39C2068.17 1675.99 2066.47 1675.99 2065.43 1675.39Z" fill="#EDEEF2"/>
<path id="Vector_237" d="M2089.15 1689.09L2072.34 1679.38C2071.3 1678.78 2071.3 1677.8 2072.34 1677.2L2087.92 1668.2C2088.96 1667.6 2090.66 1667.6 2091.7 1668.2L2108.51 1677.91C2109.55 1678.51 2109.55 1679.49 2108.51 1680.09L2092.93 1689.09C2091.89 1689.69 2090.19 1689.69 2089.15 1689.09Z" fill="#EDEEF2"/>
<path id="Vector_238" d="M2112.64 1702.65L2095.83 1692.94C2094.79 1692.34 2094.79 1691.36 2095.83 1690.76L2111.41 1681.76C2112.45 1681.16 2114.15 1681.16 2115.19 1681.76L2132 1691.47C2133.04 1692.07 2133.04 1693.05 2132 1693.65L2116.42 1702.65C2115.38 1703.25 2113.68 1703.25 2112.64 1702.65Z" fill="#EDEEF2"/>
<path id="Vector_239" d="M2136.24 1716.28L2119.43 1706.57C2118.39 1705.97 2118.39 1704.99 2119.43 1704.39L2135.01 1695.39C2136.05 1694.79 2137.75 1694.79 2138.79 1695.39L2155.6 1705.1C2156.64 1705.7 2156.64 1706.68 2155.6 1707.28L2140.02 1716.28C2138.98 1716.88 2137.28 1716.88 2136.24 1716.28Z" fill="#EDEEF2"/>
<path id="Vector_240" d="M1900.55 1580.2L1883.74 1570.49C1882.7 1569.89 1882.7 1568.91 1883.74 1568.31L1899.32 1559.31C1900.36 1558.71 1902.06 1558.71 1903.1 1559.31L1919.91 1569.02C1920.95 1569.62 1920.95 1570.6 1919.91 1571.2L1904.33 1580.2C1903.29 1580.8 1901.59 1580.8 1900.55 1580.2Z" fill="#EDEEF2"/>
</g>
<g id="Group_101">
<path id="Vector_241" d="M1913.17 1613.98L1896.36 1604.27C1895.32 1603.67 1895.32 1602.69 1896.36 1602.09L1911.94 1593.09C1912.98 1592.49 1914.68 1592.49 1915.72 1593.09L1932.53 1602.8C1933.57 1603.4 1933.57 1604.38 1932.53 1604.98L1916.95 1613.98C1915.91 1614.58 1914.21 1614.58 1913.17 1613.98Z" fill="#EDEEF2"/>
<path id="Vector_242" d="M1936.77 1627.61L1919.96 1617.9C1918.92 1617.3 1918.92 1616.32 1919.96 1615.72L1935.54 1606.72C1936.58 1606.12 1938.28 1606.12 1939.32 1606.72L1956.13 1616.43C1957.17 1617.03 1957.17 1618.01 1956.13 1618.61L1940.55 1627.61C1939.51 1628.21 1937.81 1628.21 1936.77 1627.61Z" fill="#EDEEF2"/>
<path id="Vector_243" d="M1960.38 1641.24L1943.57 1631.53C1942.53 1630.93 1942.53 1629.95 1943.57 1629.35L1959.15 1620.35C1960.19 1619.75 1961.89 1619.75 1962.93 1620.35L1979.74 1630.06C1980.78 1630.66 1980.78 1631.64 1979.74 1632.24L1964.16 1641.24C1963.12 1641.84 1961.42 1641.84 1960.38 1641.24Z" fill="#EDEEF2"/>
<path id="Vector_244" d="M2007.39 1694.71L1897.93 1631.51C1896.47 1630.67 1896.47 1629.29 1897.93 1628.45L1911.98 1620.34C1913.44 1619.5 1915.83 1619.5 1917.29 1620.34L2026.75 1683.54C2028.21 1684.38 2028.21 1685.76 2026.75 1686.6L2012.7 1694.71C2011.24 1695.55 2008.85 1695.55 2007.39 1694.71Z" fill="#EDEEF2"/>
<path id="Vector_245" d="M1983.98 1654.87L1967.17 1645.16C1966.13 1644.56 1966.13 1643.58 1967.17 1642.98L1982.75 1633.98C1983.79 1633.38 1985.49 1633.38 1986.53 1633.98L2003.34 1643.69C2004.38 1644.29 2004.38 1645.27 2003.34 1645.87L1987.76 1654.87C1986.72 1655.47 1985.02 1655.47 1983.98 1654.87Z" fill="#EDEEF2"/>
<path id="Vector_246" d="M2007.59 1668.5L1990.78 1658.79C1989.74 1658.19 1989.74 1657.21 1990.78 1656.61L2006.36 1647.61C2007.4 1647.01 2009.1 1647.01 2010.14 1647.61L2026.95 1657.32C2027.99 1657.92 2027.99 1658.9 2026.95 1659.5L2011.37 1668.5C2010.33 1669.1 2008.63 1669.1 2007.59 1668.5Z" fill="#EDEEF2"/>
<path id="Vector_247" d="M2030.95 1681.99L2014.14 1672.28C2013.1 1671.68 2013.1 1670.7 2014.14 1670.1L2029.72 1661.1C2030.76 1660.5 2032.46 1660.5 2033.5 1661.1L2050.31 1670.81C2051.35 1671.41 2051.35 1672.39 2050.31 1672.99L2034.73 1681.99C2033.69 1682.59 2031.99 1682.59 2030.95 1681.99Z" fill="#EDEEF2"/>
<path id="Vector_248" d="M2054.44 1695.55L2037.63 1685.84C2036.59 1685.24 2036.59 1684.26 2037.63 1683.66L2053.21 1674.66C2054.25 1674.06 2055.95 1674.06 2056.99 1674.66L2073.8 1684.37C2074.84 1684.97 2074.84 1685.95 2073.8 1686.55L2058.22 1695.55C2057.18 1696.15 2055.48 1696.15 2054.44 1695.55Z" fill="#EDEEF2"/>
<path id="Vector_249" d="M2078.16 1709.24L2061.35 1699.53C2060.31 1698.93 2060.31 1697.95 2061.35 1697.35L2076.93 1688.35C2077.97 1687.75 2079.67 1687.75 2080.71 1688.35L2097.52 1698.06C2098.56 1698.66 2098.56 1699.64 2097.52 1700.24L2081.94 1709.24C2080.9 1709.84 2079.2 1709.84 2078.16 1709.24Z" fill="#EDEEF2"/>
<path id="Vector_250" d="M2101.65 1722.8L2084.84 1713.09C2083.8 1712.49 2083.8 1711.51 2084.84 1710.91L2100.42 1701.91C2101.46 1701.31 2103.16 1701.31 2104.2 1701.91L2121.01 1711.62C2122.05 1712.22 2122.05 1713.2 2121.01 1713.8L2105.43 1722.8C2104.39 1723.4 2102.69 1723.4 2101.65 1722.8Z" fill="#EDEEF2"/>
<path id="Vector_251" d="M1889.56 1600.36L1872.75 1590.65C1871.71 1590.05 1871.71 1589.07 1872.75 1588.47L1888.33 1579.47C1889.37 1578.87 1891.07 1578.87 1892.11 1579.47L1908.92 1589.18C1909.96 1589.78 1909.96 1590.76 1908.92 1591.36L1893.34 1600.36C1892.3 1600.96 1890.6 1600.96 1889.56 1600.36Z" fill="#EDEEF2"/>
</g>
<g id="Group_102">
<path id="Vector_252" d="M1837.36 1596.54L1820.55 1586.83C1819.51 1586.23 1819.51 1585.25 1820.55 1584.65L1836.13 1575.65C1837.17 1575.05 1838.87 1575.05 1839.91 1575.65L1856.72 1585.36C1857.76 1585.96 1857.76 1586.94 1856.72 1587.54L1841.14 1596.54C1840.1 1597.14 1838.4 1597.14 1837.36 1596.54Z" fill="#EDEEF2"/>
<path id="Vector_253" d="M1860.96 1610.17L1844.15 1600.46C1843.11 1599.86 1843.11 1598.88 1844.15 1598.28L1859.73 1589.28C1860.77 1588.68 1862.47 1588.68 1863.51 1589.28L1880.32 1598.99C1881.36 1599.59 1881.36 1600.57 1880.32 1601.17L1864.74 1610.17C1863.7 1610.77 1862 1610.77 1860.96 1610.17Z" fill="#EDEEF2"/>
<path id="Vector_254" d="M1890.12 1627L1868.01 1614.23C1866.83 1613.55 1866.83 1612.44 1868.01 1611.76L1883.09 1603.05C1884.27 1602.37 1886.19 1602.37 1887.37 1603.05L1909.48 1615.82C1910.66 1616.5 1910.66 1617.61 1909.48 1618.29L1894.4 1627C1893.22 1627.68 1891.29 1627.68 1890.12 1627Z" fill="#EDEEF2"/>
<path id="Vector_255" d="M1893.85 1549.83L1865.41 1533.41C1864.43 1532.85 1864.43 1531.93 1865.41 1531.36L1881.23 1522.23C1882.21 1521.67 1883.8 1521.67 1884.78 1522.23L1913.22 1538.65C1914.2 1539.21 1914.2 1540.13 1913.22 1540.7L1897.4 1549.83C1896.42 1550.39 1894.83 1550.39 1893.85 1549.83Z" fill="#EDEEF2"/>
<path id="Vector_256" d="M1876.93 1566.56L1842.49 1546.67C1841.5 1546.1 1841.5 1545.17 1842.49 1544.6L1858.26 1535.5C1859.25 1534.93 1860.86 1534.93 1861.85 1535.5L1896.29 1555.39C1897.28 1555.96 1897.28 1556.89 1896.29 1557.46L1880.52 1566.56C1879.54 1567.13 1877.92 1567.13 1876.93 1566.56Z" fill="#EDEEF2"/>
<path id="Vector_257" d="M1865.52 1586.47L1819.5 1559.9C1818.54 1559.34 1818.54 1558.43 1819.5 1557.87L1835.35 1548.72C1836.31 1548.16 1837.89 1548.16 1838.86 1548.72L1884.88 1575.29C1885.84 1575.85 1885.84 1576.76 1884.88 1577.32L1869.03 1586.47C1868.06 1587.03 1866.48 1587.03 1865.52 1586.47Z" fill="#EDEEF2"/>
<path id="Vector_258" d="M2177.52 1740.11L2143.08 1720.22C2142.09 1719.65 2142.09 1718.72 2143.08 1718.15L2158.85 1709.05C2159.84 1708.48 2161.45 1708.48 2162.44 1709.05L2196.88 1728.94C2197.87 1729.51 2197.87 1730.44 2196.88 1731.01L2181.11 1740.11C2180.13 1740.68 2178.51 1740.68 2177.52 1740.11Z" fill="#EDEEF2"/>
<path id="Vector_259" d="M2154.61 1753.38L2108.59 1726.81C2107.63 1726.25 2107.63 1725.34 2108.59 1724.78L2124.44 1715.63C2125.4 1715.07 2126.98 1715.07 2127.95 1715.63L2173.97 1742.2C2174.93 1742.76 2174.93 1743.67 2173.97 1744.23L2158.12 1753.38C2157.16 1753.94 2155.58 1753.94 2154.61 1753.38Z" fill="#EDEEF2"/>
<path id="Vector_260" d="M2131.77 1766.52L2114.96 1756.81C2113.92 1756.21 2113.92 1755.23 2114.96 1754.63L2130.54 1745.63C2131.58 1745.03 2133.28 1745.03 2134.32 1745.63L2151.13 1755.34C2152.17 1755.94 2152.17 1756.92 2151.13 1757.52L2135.55 1766.52C2134.51 1767.12 2132.81 1767.12 2131.77 1766.52Z" fill="#EDEEF2"/>
<path id="Vector_261" d="M2061.08 1725.71L2044.27 1716C2043.23 1715.4 2043.23 1714.42 2044.27 1713.82L2059.85 1704.82C2060.89 1704.22 2062.59 1704.22 2063.63 1704.82L2080.44 1714.53C2081.48 1715.13 2081.48 1716.11 2080.44 1716.71L2064.86 1725.71C2063.82 1726.31 2062.12 1726.31 2061.08 1725.71Z" fill="#EDEEF2"/>
<path id="Vector_262" d="M2084.68 1739.34L2067.87 1729.63C2066.83 1729.03 2066.83 1728.05 2067.87 1727.45L2083.45 1718.45C2084.49 1717.85 2086.19 1717.85 2087.23 1718.45L2104.04 1728.16C2105.08 1728.76 2105.08 1729.74 2104.04 1730.34L2088.46 1739.34C2087.42 1739.94 2085.72 1739.94 2084.68 1739.34Z" fill="#EDEEF2"/>
<path id="Vector_263" d="M2118.65 1747.26L2101 1737.07C2100.29 1736.66 2100.29 1735.99 2101 1735.58L2107.66 1731.74C2108.37 1731.33 2109.54 1731.33 2110.25 1731.74L2127.9 1741.93C2128.61 1742.34 2128.61 1743.01 2127.9 1743.42L2121.24 1747.26C2120.53 1747.68 2119.36 1747.68 2118.65 1747.26Z" fill="#EDEEF2"/>
<path id="Vector_264" d="M2108.53 1753.11L2090.88 1742.92C2090.17 1742.51 2090.17 1741.84 2090.88 1741.43L2097.54 1737.59C2098.25 1737.18 2099.42 1737.18 2100.13 1737.59L2117.78 1747.78C2118.49 1748.19 2118.49 1748.86 2117.78 1749.27L2111.12 1753.11C2110.41 1753.52 2109.24 1753.52 2108.53 1753.11Z" fill="#EDEEF2"/>
<path id="Vector_265" d="M2036.91 1711.75L2015.12 1699.17C2013.95 1698.5 2013.95 1697.39 2015.12 1696.72L2030.23 1687.99C2031.4 1687.32 2033.31 1687.32 2034.48 1687.99L2056.27 1700.57C2057.44 1701.24 2057.44 1702.35 2056.27 1703.02L2041.16 1711.75C2039.99 1712.43 2038.07 1712.43 2036.91 1711.75Z" fill="#EDEEF2"/>
<path id="Vector_266" d="M1813.75 1582.91L1796.94 1573.2C1795.9 1572.6 1795.9 1571.62 1796.94 1571.02L1812.52 1562.02C1813.56 1561.42 1815.26 1561.42 1816.3 1562.02L1833.11 1571.73C1834.15 1572.33 1834.15 1573.31 1833.11 1573.91L1817.53 1582.91C1816.49 1583.51 1814.79 1583.51 1813.75 1582.91Z" fill="#EDEEF2"/>
</g>
</g>
</g>
<g id="mouse-pad">
<path id="Vector_267" d="M2008.74 1369.47L1782.26 1238.71L1555.79 1369.47L1782.26 1500.23L2008.74 1369.47Z" fill="#3E3E3E"/>
<path id="Vector_268" d="M1990.6 1369.47L1784.31 1486.86L1573.88 1369.47L1781.45 1249.59L1990.6 1369.47Z" fill="#525252"/>
</g>
<g id="mouse">
<path id="Vector_269" d="M1841.79 1361.41C1838.25 1368.78 1804.68 1383.05 1798.35 1385.12C1792.02 1387.18 1780.86 1397.27 1774.94 1401.17C1752.77 1415.77 1736.35 1408.18 1724.58 1403.67C1710.65 1398.34 1706.61 1391.74 1706.52 1384.77C1706.47 1380.78 1707.64 1376.86 1708.83 1373.48C1712.07 1364.2 1735.92 1333.87 1765.07 1323.12C1794.22 1312.37 1819.85 1313.7 1834.57 1329.6C1838.5 1333.84 1840.85 1338.09 1842.17 1342.03C1845.82 1352.87 1841.79 1361.41 1841.79 1361.41Z" fill="#AEADAE"/>
<path id="Vector_270" d="M1835.6 1359.64C1831.52 1360.39 1819.4 1356.11 1804.09 1361.74C1788.78 1367.38 1777.14 1391.3 1769.2 1398.95C1761.25 1406.61 1746.32 1408.05 1724 1398.95C1714.98 1395.28 1709.44 1390.03 1706.53 1384.76C1706.48 1380.77 1707.65 1376.85 1708.84 1373.47C1711.58 1365.61 1729.12 1342.64 1752.14 1329.27C1752.87 1328.84 1753.61 1328.43 1754.35 1328.02C1757.82 1326.13 1761.41 1324.46 1765.08 1323.11C1787.75 1314.75 1808.29 1313.69 1823.23 1321.12C1823.86 1321.42 1824.47 1321.75 1825.08 1322.1C1828.61 1324.08 1831.79 1326.57 1834.58 1329.59C1838.51 1333.83 1841.32 1337.95 1842.18 1342.02C1845.99 1360 1837.45 1359.3 1835.6 1359.64Z" fill="#F0EFEF"/>
<g id="Group_103">
<path id="Vector_271" d="M1801.72 1357.98L1800.97 1358.42C1789.01 1338.06 1775.53 1331.45 1766.32 1329.48C1760.24 1328.19 1755.17 1328.69 1752.12 1329.28C1752.85 1328.85 1753.59 1328.44 1754.33 1328.03C1757.41 1327.66 1761.59 1327.58 1766.44 1328.61C1769.57 1329.27 1773.18 1330.46 1777.05 1332.51C1777.34 1332.66 1777.63 1332.82 1777.92 1332.98C1785.47 1337.2 1793.93 1344.71 1801.72 1357.98Z" fill="#B0B0B0"/>
</g>
<g id="Group_104">
<path id="Vector_272" d="M1825.07 1322.12C1799.56 1320.28 1781.33 1330.85 1777.93 1332.99C1777.57 1333.22 1777.38 1333.35 1777.36 1333.36L1776.87 1332.65C1776.87 1332.65 1776.94 1332.6 1777.07 1332.52C1778.21 1331.77 1784.21 1327.99 1793.58 1324.99C1800.73 1322.71 1811 1320.53 1823.22 1321.14C1823.85 1321.45 1824.46 1321.78 1825.07 1322.12Z" fill="#B0B0B0"/>
</g>
<path id="Vector_273" d="M1791.22 1323.28C1791.22 1323.28 1797.21 1326.4 1798.01 1327.79C1798.01 1327.79 1806.95 1324.35 1814.99 1324.62C1814.99 1324.62 1811.59 1320.69 1808.29 1320.24C1808.29 1320.24 1800.07 1319.52 1791.22 1323.28Z" fill="#B0B0B0"/>
</g>
<g id="tree">
<g id="Group_105">
<path id="Vector_274" d="M2765.42 1695.4L2776.56 1586.76L2669.21 1587.02L2679.09 1695.04L2765.42 1695.4Z" fill="#E2E2E2"/>
<path id="Vector_275" d="M2722.88 1614.99C2752.56 1614.99 2776.62 1601.76 2776.62 1585.44C2776.62 1569.12 2752.56 1555.89 2722.88 1555.89C2693.2 1555.89 2669.14 1569.12 2669.14 1585.44C2669.14 1601.76 2693.2 1614.99 2722.88 1614.99Z" fill="white"/>
<path id="Vector_276" d="M2679.09 1695.04C2679.09 1708.13 2698.48 1718.76 2722.29 1718.76C2746.1 1718.76 2765.42 1708.49 2765.42 1695.4C2765.42 1682.31 2746.1 1671.35 2722.29 1671.35C2698.48 1671.35 2679.09 1681.94 2679.09 1695.04Z" fill="#E2E2E2"/>
<path id="Vector_277" d="M2722.5 1608.14C2748.09 1608.14 2768.84 1597.48 2768.84 1584.32C2768.84 1571.16 2748.09 1560.5 2722.5 1560.5C2696.91 1560.5 2676.16 1571.16 2676.16 1584.32C2676.16 1597.48 2696.91 1608.14 2722.5 1608.14Z" fill="#723823"/>
</g>
<g id="Group_106">
<path id="Vector_278" d="M2718.28 1514.49V1584.14C2718.28 1587.82 2721.25 1590.79 2724.93 1590.8H2724.94C2728.61 1590.8 2731.59 1587.82 2731.59 1584.14V1514.49C2731.59 1510.82 2728.61 1507.84 2724.94 1507.84H2724.93C2723.09 1507.84 2721.43 1508.58 2720.23 1509.79C2719.03 1510.98 2718.28 1512.66 2718.28 1514.49Z" fill="#BA5D28"/>
<path id="Vector_279" d="M2724.94 1507.83V1590.8H2724.95C2728.62 1590.8 2731.6 1587.82 2731.6 1584.14V1514.49C2731.6 1510.82 2728.62 1507.83 2724.94 1507.83Z" fill="#D7782D"/>
<path id="Vector_280" d="M2686.04 1484.02C2686.04 1553.03 2703.46 1564.55 2724.93 1564.55C2741.02 1564.55 2754.83 1558.09 2760.74 1525.86C2762.72 1515.05 2763.82 1501.35 2763.82 1484.03C2763.82 1415.02 2724.93 1330.15 2724.93 1330.15C2724.93 1330.15 2720.2 1340.46 2714.05 1356.82C2702.55 1387.38 2686.04 1439.06 2686.04 1484.02Z" fill="#88BB40"/>
<path id="Vector_281" opacity="0.2" d="M2714.06 1356.81C2715.21 1465.47 2741.35 1508.72 2760.76 1525.86C2762.74 1515.05 2763.84 1501.35 2763.84 1484.03C2763.84 1415.02 2724.95 1330.15 2724.95 1330.15C2724.95 1330.15 2720.21 1340.44 2714.06 1356.81Z" fill="white"/>
</g>
</g>
<g id="Book">
<g id="books_7_">
<path id="Vector_282" d="M2654.6 1730.08L2464.01 1839.99L2322.84 1758.61L2513.42 1648.57L2654.6 1730.08Z" fill="#65CCEB"/>
<path id="Vector_283" d="M2325.06 1751.62V1758.2L2463.5 1838.02V1831.67L2325.06 1751.62Z" fill="#F0EFEF"/>
<path id="Vector_284" d="M2654.6 1722.71L2464.01 1832.74L2322.84 1751.23L2513.42 1641.2L2654.6 1722.71Z" fill="#65CCEB"/>
<path id="Vector_285" d="M2654.6 1722.71L2464.01 1832.74V1840.89L2654.6 1730.86V1722.71Z" fill="#56B3CF"/>
<path id="Vector_286" d="M2464.01 1832.74V1833.64L2322.84 1752.02V1751.23L2464.01 1832.74Z" fill="#59B8D6"/>
<path id="Vector_287" d="M2464.01 1839.99V1840.89L2322.84 1759.38V1758.6L2464.01 1839.99Z" fill="#59B8D6"/>
<path id="Vector_288" d="M2464.01 1833.64L2462.98 1833.05V1839.4L2464.01 1839.99V1833.64Z" fill="#59B8D6"/>
</g>
<path id="Vector_289" d="M2454.58 1830.26L2449.36 1827.23C2449.36 1827.23 2446.85 1831.2 2445.39 1831.82C2444.02 1832.41 2438 1834.01 2436.74 1834.04L2442.05 1838.01C2442.05 1838.01 2448.99 1835.79 2450.19 1834.74C2451.88 1833.27 2454.58 1830.26 2454.58 1830.26Z" fill="#5C5C5C"/>
</g>
<g id="note">
<g id="Group_107">
<path id="Vector_290" d="M2376.6 1660.09L2306.27 1619.48L2373.08 1580.91L2443.41 1621.51L2376.6 1660.09Z" fill="#49B9DC"/>
<path id="Vector_291" d="M2376.6 1647.02L2306.27 1606.42L2373.08 1567.84L2443.41 1608.45L2376.6 1647.02Z" fill="#E5E86C"/>
<path id="Vector_292" opacity="0.3" d="M2427.99 1617.35L2357.66 1576.75L2373.08 1567.84L2443.41 1608.45L2427.99 1617.35Z" fill="white"/>
</g>
<path id="Vector_293" d="M2376.6 1647.02V1660.09L2443.41 1621.51V1608.45L2376.6 1647.02Z" fill="#D4D364"/>
<path id="Vector_294" d="M2376.6 1647.02V1660.09L2306.27 1619.48V1606.42L2376.6 1647.02Z" fill="#C6C359"/>
</g>
</g>
</g>
</svg>
