<svg width="1740" height="1674" viewBox="0 0 1740 1674" fill="none" xmlns="http://www.w3.org/2000/svg">
<g id="table">
<path id="Vector" opacity="0.1" d="M1685.45 1369.36L1158.94 1673.34L0.640015 1004.59L527.1 700.58L1685.45 1369.36Z" fill="black"/>
<g id="desk_5_">
<g id="Group">
<path id="Vector_2" d="M1621.84 702.87C1615.51 706.52 1615.48 712.44 1621.77 716.09C1628.05 719.74 1638.26 719.74 1644.59 716.09C1650.91 712.44 1650.94 706.53 1644.66 702.88C1638.37 699.22 1628.16 699.22 1621.84 702.87Z" fill="#B6B7B7"/>
</g>
<g id="Group_2">
<g id="Group_3">
<g id="Group_4">
<path id="Vector_3" d="M1614.08 1330.05V1339.59C1614.09 1342.67 1616.12 1345.75 1620.17 1348.11C1628.31 1352.84 1641.56 1352.84 1649.77 1348.11C1653.9 1345.73 1655.96 1342.6 1655.95 1339.48V1329.94C1655.96 1333.06 1653.9 1336.19 1649.77 1338.57C1641.56 1343.31 1628.31 1343.31 1620.17 1338.58C1616.12 1336.21 1614.09 1333.14 1614.08 1330.05Z" fill="#505050"/>
</g>
<g id="Group_5">
<path id="Vector_4" d="M1620.27 1321.42C1612.06 1326.16 1612.02 1333.83 1620.17 1338.57C1628.31 1343.3 1641.56 1343.3 1649.77 1338.56C1657.97 1333.83 1658.01 1326.15 1649.87 1321.42C1641.71 1316.69 1628.47 1316.69 1620.27 1321.42Z" fill="#717171"/>
</g>
</g>
</g>
<g id="Group_6">
<g id="Group_7">
<g id="Group_8">
<path id="Vector_5" d="M560.59 721.3V730.84C560.6 733.92 562.63 737 566.68 739.36C574.82 744.09 588.07 744.09 596.28 739.35C600.41 736.97 602.47 733.84 602.46 730.72V721.18C602.47 724.3 600.41 727.43 596.28 729.81C588.07 734.55 574.82 734.55 566.68 729.81C562.63 727.46 560.6 724.38 560.59 721.3Z" fill="#505050"/>
</g>
<g id="Group_9">
<path id="Vector_6" d="M566.78 712.67C558.57 717.41 558.53 725.08 566.68 729.82C574.82 734.55 588.07 734.55 596.28 729.82C604.48 725.09 604.52 717.41 596.38 712.68C588.22 707.93 574.97 707.93 566.78 712.67Z" fill="#717171"/>
</g>
</g>
</g>
<g id="Group_10">
<g id="Group_11">
<g id="Group_12">
<g id="Group_13">
<path id="Vector_7" d="M566.3 605.14L574.46 600.7C572.16 600.38 569.95 600.51 567.91 601.03L559.75 605.47C561.79 604.95 564 604.82 566.3 605.14Z" fill="#4B4B4B"/>
<path id="Vector_8" d="M559.75 605.47L567.91 601.03C566.87 601.3 565.86 601.67 564.92 602.14L556.76 606.58C557.71 606.11 558.71 605.74 559.75 605.47Z" fill="#494949"/>
<path id="Vector_9" d="M556.76 606.58L564.92 602.14C564.73 602.24 564.53 602.34 564.34 602.44L556.18 606.88C556.37 606.77 556.56 606.67 556.76 606.58Z" fill="#464646"/>
</g>
</g>
<g id="Group_14">
<g id="Group_15">
<path id="Vector_10" d="M576.5 644.28L584.66 639.84C589.95 636.96 593.45 631.07 593.44 623.8C593.43 621.02 592.92 618.29 591.98 615.75L583.82 620.19C584.76 622.74 585.27 625.46 585.28 628.24C585.29 635.52 581.79 641.4 576.5 644.28Z" fill="#3A3B3A"/>
<path id="Vector_11" d="M583.82 620.19L591.98 615.75C591.58 614.65 591.1 613.59 590.55 612.56L582.39 617C582.93 618.03 583.42 619.09 583.82 620.19Z" fill="#3D3D3D"/>
<path id="Vector_12" d="M582.38 617L590.54 612.56C590.07 611.69 589.56 610.86 589 610.06L580.84 614.5C581.4 615.3 581.92 616.14 582.38 617Z" fill="#404040"/>
<path id="Vector_13" d="M580.84 614.5L589 610.06C588.47 609.31 587.9 608.58 587.3 607.9L579.14 612.34C579.74 613.03 580.31 613.75 580.84 614.5Z" fill="#424242"/>
<path id="Vector_14" d="M579.14 612.34L587.3 607.9C586.69 607.21 586.05 606.56 585.37 605.95L577.21 610.39C577.89 611 578.53 611.65 579.14 612.34Z" fill="#444444"/>
<path id="Vector_15" d="M577.21 610.39L585.37 605.95C584.64 605.3 583.88 604.69 583.08 604.14L574.92 608.58C575.72 609.13 576.48 609.74 577.21 610.39Z" fill="#464646"/>
<path id="Vector_16" d="M574.92 608.58L583.08 604.14C582.1 603.46 581.07 602.87 580 602.37L571.84 606.81C572.91 607.31 573.94 607.9 574.92 608.58Z" fill="#494949"/>
<path id="Vector_17" d="M571.84 606.81L580 602.37C578.25 601.55 576.39 600.97 574.46 600.7L566.3 605.14C568.23 605.41 570.09 605.98 571.84 606.81Z" fill="#4B4B4B"/>
</g>
</g>
<g id="Group_16">
<path id="Vector_18" d="M576.508 644.165C585.333 639.364 587.933 627.103 582.317 616.78C576.7 606.456 564.993 601.98 556.169 606.781C547.345 611.582 544.744 623.842 550.361 634.166C555.977 644.489 567.684 648.966 576.508 644.165Z" fill="#636363"/>
</g>
</g>
</g>
<g id="Group_17">
<path id="Vector_19" d="M563.58 100.78L565.28 720.44C565.29 722.82 566.85 725.19 569.97 727C576.25 730.65 586.46 730.65 592.79 727C595.97 725.16 597.56 722.75 597.55 720.35L595.85 100.69C595.86 103.1 594.27 105.51 591.09 107.34C584.76 110.99 574.55 110.99 568.27 107.34C565.15 105.53 563.59 103.15 563.58 100.78Z" fill="#505050"/>
</g>
<g id="Group_18">
<g id="Group_19">
<g id="Group_20">
<path id="Vector_20" d="M111.4 900.06C117.72 903.73 122.86 900.81 122.9 893.54C122.94 886.28 117.85 877.42 111.53 873.76C105.22 870.1 100.07 873.02 100.04 880.28C100 887.54 105.08 896.39 111.4 900.06Z" fill="#B6B7B7"/>
</g>
<g id="Group_21">
<path id="Vector_21" d="M119.54 900.87L576.21 637.94C578.27 636.75 579.55 634.21 579.56 630.6C579.6 623.34 574.51 614.48 568.19 610.82C565.01 608.98 562.13 608.8 560.05 610.01L103.38 872.94C105.46 871.74 108.34 871.91 111.52 873.75C117.84 877.42 122.93 886.27 122.89 893.53C122.88 897.15 121.6 899.68 119.54 900.87Z" fill="#505050"/>
</g>
</g>
</g>
<g id="Group_22">
<g id="Group_23">
<g id="Group_24">
<path id="Vector_22" d="M85.78 994.32V1003.86C85.79 1006.94 87.82 1010.02 91.87 1012.38C100.01 1017.11 113.26 1017.11 121.47 1012.37C125.6 1009.99 127.66 1006.86 127.65 1003.74V994.2C127.66 997.32 125.6 1000.45 121.47 1002.83C113.26 1007.57 100.02 1007.57 91.87 1002.84C87.82 1000.48 85.79 997.41 85.78 994.32Z" fill="#505050"/>
</g>
<g id="Group_25">
<path id="Vector_23" d="M91.97 985.69C83.76 990.43 83.72 998.1 91.87 1002.84C100.01 1007.57 113.26 1007.57 121.47 1002.83C129.67 998.1 129.71 990.42 121.57 985.69C113.41 980.95 100.16 980.95 91.97 985.69Z" fill="#717171"/>
</g>
</g>
</g>
<g id="Group_26">
<g id="Group_27">
<g id="Group_28">
<g id="Group_29">
<path id="Vector_24" d="M110.77 866.85L118.93 862.41C116.63 862.09 114.42 862.22 112.38 862.74L104.21 867.18C106.26 866.66 108.47 866.53 110.77 866.85Z" fill="#4B4B4B"/>
<path id="Vector_25" d="M104.22 867.18L112.39 862.74C111.35 863.01 110.34 863.38 109.4 863.85L101.23 868.29C102.18 867.82 103.18 867.45 104.22 867.18Z" fill="#494949"/>
<path id="Vector_26" d="M101.23 868.29L109.4 863.85C109.21 863.95 109.01 864.05 108.82 864.15L100.65 868.59C100.84 868.48 101.04 868.39 101.23 868.29Z" fill="#464646"/>
</g>
</g>
<g id="Group_30">
<g id="Group_31">
<path id="Vector_27" d="M120.97 905.99L129.13 901.55C134.42 898.67 137.92 892.78 137.91 885.51C137.9 882.73 137.39 880 136.45 877.46L128.29 881.9C129.23 884.45 129.74 887.17 129.75 889.95C129.76 897.23 126.26 903.11 120.97 905.99Z" fill="#3A3B3A"/>
<path id="Vector_28" d="M128.29 881.9L136.45 877.46C136.05 876.36 135.57 875.3 135.02 874.27L126.86 878.71C127.41 879.74 127.89 880.8 128.29 881.9Z" fill="#3D3D3D"/>
<path id="Vector_29" d="M126.86 878.71L135.02 874.27C134.55 873.4 134.04 872.57 133.48 871.77L125.32 876.21C125.87 877.01 126.39 877.85 126.86 878.71Z" fill="#404040"/>
<path id="Vector_30" d="M125.31 876.21L133.47 871.77C132.94 871.02 132.37 870.29 131.77 869.61L123.6 874.05C124.22 874.74 124.79 875.46 125.31 876.21Z" fill="#424242"/>
<path id="Vector_31" d="M123.61 874.05L131.78 869.61C131.17 868.92 130.53 868.27 129.85 867.66L121.69 872.1C122.36 872.71 123 873.36 123.61 874.05Z" fill="#444444"/>
<path id="Vector_32" d="M121.68 872.1L129.84 867.66C129.11 867.01 128.35 866.4 127.55 865.85L119.39 870.29C120.19 870.84 120.95 871.45 121.68 872.1Z" fill="#464646"/>
<path id="Vector_33" d="M119.39 870.29L127.55 865.85C126.57 865.17 125.54 864.58 124.47 864.08L116.31 868.52C117.38 869.02 118.41 869.61 119.39 870.29Z" fill="#494949"/>
<path id="Vector_34" d="M116.31 868.52L124.47 864.08C122.72 863.26 120.86 862.68 118.93 862.41L110.77 866.85C112.7 867.12 114.56 867.69 116.31 868.52Z" fill="#4B4B4B"/>
</g>
</g>
<g id="Group_32">
<path id="Vector_35" d="M121.006 905.874C129.831 901.073 132.431 888.812 126.815 878.489C121.198 868.165 109.491 863.688 100.667 868.489C91.8423 873.29 89.2417 885.551 94.8583 895.875C100.475 906.198 112.182 910.675 121.006 905.874Z" fill="#636363"/>
</g>
</g>
</g>
<g id="Group_33">
<g id="Group_34">
<g id="Group_35">
<path id="Vector_36" d="M89.73 374.37L91.4301 994.03C91.4401 996.41 93 998.78 96.12 1000.59C102.4 1004.24 112.61 1004.24 118.94 1000.59C122.12 998.75 123.71 996.34 123.7 993.94L122 374.28C122.01 376.69 120.42 379.1 117.24 380.93C110.91 384.58 100.7 384.58 94.42 380.93C91.3 379.12 89.73 376.75 89.73 374.37Z" fill="#505050"/>
</g>
<g id="Group_36">
<path id="Vector_37" d="M94.49 367.72C88.16 371.37 88.13 377.29 94.42 380.94C100.7 384.59 110.91 384.59 117.24 380.94C123.56 377.29 123.59 371.38 117.31 367.73C111.03 364.07 100.81 364.07 94.49 367.72Z" fill="#B6B7B7"/>
</g>
</g>
</g>
<g id="Group_37">
<g id="Group_38">
<g id="Group_39">
<path id="Vector_38" d="M387.8 735.28L371.99 726.09C369.02 724.37 364.91 724.61 360.38 727.23L376.19 736.42C380.72 733.8 384.83 733.55 387.8 735.28Z" fill="#444444"/>
</g>
<g id="Group_40">
<path id="Vector_39" d="M348.88 765.85L364.69 775.04C361.76 773.34 359.95 769.72 359.93 764.58C359.9 754.23 367.18 741.62 376.19 736.42L360.38 727.23C351.37 732.43 344.09 745.04 344.12 755.39C344.13 760.53 345.95 764.15 348.88 765.85Z" fill="#444444"/>
</g>
<g id="Group_41">
<path id="Vector_40" d="M376.19 736.41C367.18 741.61 359.9 754.22 359.93 764.57C359.96 774.92 367.28 779.1 376.3 773.9C385.3 768.7 392.59 756.09 392.56 745.74C392.53 735.39 385.2 731.22 376.19 736.41Z" fill="#636363"/>
</g>
</g>
</g>
<g id="Group_42">
<g id="Group_43">
<g id="Group_44">
<path id="Vector_41" d="M836.26 1008.36C836.31 1001.06 831.22 998.04 824.89 1001.61C818.57 1005.18 813.41 1014 813.36 1021.3C813.31 1028.6 818.4 1031.62 824.72 1028.04C831.05 1024.47 836.21 1015.66 836.26 1008.36Z" fill="#505050"/>
</g>
<g id="Group_45">
<path id="Vector_42" d="M832.92 1000.88L383.38 741.49C381.33 740.29 378.49 740.44 375.34 742.22C369.02 745.79 363.86 754.61 363.81 761.91C363.79 765.58 365.06 768.17 367.14 769.38L816.68 1028.77C814.6 1027.56 813.32 1024.97 813.35 1021.3C813.4 1013.99 818.56 1005.18 824.88 1001.61C828.03 999.84 830.87 999.69 832.92 1000.88Z" fill="#505050"/>
</g>
</g>
</g>
<g id="Group_46">
<g id="Group_47">
<g id="Group_48">
<path id="Vector_43" d="M847.86 1001.21L832.05 992.02C829.08 990.3 824.97 990.54 820.44 993.16L836.25 1002.35C840.79 999.73 844.9 999.49 847.86 1001.21Z" fill="#444444"/>
</g>
<g id="Group_49">
<path id="Vector_44" d="M808.94 1031.79L824.75 1040.98C821.82 1039.28 820.01 1035.66 819.99 1030.52C819.96 1020.17 827.24 1007.56 836.25 1002.36L820.44 993.17C811.43 998.37 804.15 1010.98 804.18 1021.33C804.2 1026.47 806.01 1030.08 808.94 1031.79Z" fill="#444444"/>
</g>
<g id="Group_50">
<path id="Vector_45" d="M847.907 1027.89C854.29 1016.91 854.309 1005.01 847.948 1001.31C841.588 997.613 831.257 1003.52 824.874 1014.5C818.491 1025.49 818.473 1037.38 824.833 1041.08C831.194 1044.78 841.524 1038.87 847.907 1027.89Z" fill="#636363"/>
</g>
</g>
</g>
<g id="Group_51">
<g id="Group_52">
<g id="Group_53">
<path id="Vector_46" d="M1420.03 1346.74C1420.08 1339.44 1414.99 1336.42 1408.66 1339.99C1402.34 1343.56 1397.18 1352.38 1397.13 1359.68C1397.08 1366.98 1402.17 1370 1408.49 1366.42C1414.83 1362.85 1419.99 1354.04 1420.03 1346.74Z" fill="#505050"/>
</g>
<g id="Group_54">
<path id="Vector_47" d="M1416.7 1339.27L846.09 1007.54C844.04 1006.34 841.2 1006.49 838.05 1008.27C831.73 1011.84 826.57 1020.66 826.52 1027.96C826.5 1031.63 827.77 1034.22 829.85 1035.43L1400.46 1367.16C1398.38 1365.95 1397.1 1363.36 1397.13 1359.69C1397.18 1352.39 1402.34 1343.57 1408.66 1340C1411.81 1338.22 1414.64 1338.07 1416.7 1339.27Z" fill="#505050"/>
</g>
</g>
</g>
<g id="Group_55">
<g id="Group_56">
<g id="Group_57">
<path id="Vector_48" d="M1421.16 1333.81L1405.35 1324.62C1402.38 1322.9 1398.27 1323.14 1393.74 1325.76L1409.55 1334.95C1414.08 1332.33 1418.19 1332.09 1421.16 1333.81Z" fill="#444444"/>
</g>
<g id="Group_58">
<path id="Vector_49" d="M1382.23 1364.39L1398.04 1373.58C1395.11 1371.88 1393.3 1368.26 1393.28 1363.12C1393.25 1352.77 1400.53 1340.16 1409.54 1334.96L1393.73 1325.77C1384.72 1330.97 1377.44 1343.58 1377.47 1353.93C1377.49 1359.07 1379.31 1362.68 1382.23 1364.39Z" fill="#444444"/>
</g>
<g id="Group_59">
<path id="Vector_50" d="M1409.55 1334.95C1400.54 1340.15 1393.26 1352.76 1393.29 1363.11C1393.32 1373.46 1400.64 1377.64 1409.66 1372.44C1418.66 1367.24 1425.95 1354.63 1425.92 1344.28C1425.89 1333.92 1418.55 1329.75 1409.55 1334.95Z" fill="#505050"/>
</g>
</g>
</g>
<g id="Group_60">
<path id="Vector_51" d="M1617.08 709.53L1618.78 1329.19C1618.79 1331.57 1620.35 1333.94 1623.47 1335.75C1629.75 1339.4 1639.96 1339.4 1646.29 1335.75C1649.47 1333.91 1651.06 1331.5 1651.05 1329.1L1649.35 709.44C1649.36 711.85 1647.77 714.26 1644.59 716.09C1638.26 719.74 1628.05 719.74 1621.77 716.09C1618.65 714.28 1617.08 711.91 1617.08 709.53Z" fill="#505050"/>
</g>
<g id="Group_61">
<g id="Group_62">
<g id="Group_63">
<path id="Vector_52" d="M1139.27 1603.07V1612.61C1139.28 1615.69 1141.31 1618.77 1145.36 1621.13C1153.5 1625.86 1166.75 1625.86 1174.96 1621.12C1179.09 1618.74 1181.15 1615.61 1181.14 1612.49V1602.95C1181.15 1606.07 1179.09 1609.2 1174.96 1611.58C1166.75 1616.32 1153.5 1616.32 1145.36 1611.59C1141.31 1609.24 1139.28 1606.16 1139.27 1603.07Z" fill="#505050"/>
</g>
<g id="Group_64">
<path id="Vector_53" d="M1145.46 1594.44C1137.25 1599.18 1137.21 1606.85 1145.36 1611.59C1153.5 1616.32 1166.75 1616.32 1174.96 1611.58C1183.16 1606.85 1183.2 1599.17 1175.06 1594.44C1166.9 1589.71 1153.66 1589.71 1145.46 1594.44Z" fill="#717171"/>
</g>
</g>
</g>
<g id="Group_65">
<g id="Group_66">
<g id="Group_67">
<g id="Group_68">
<path id="Vector_54" d="M1619.79 1213.89L1627.95 1209.45C1625.65 1209.13 1623.44 1209.26 1621.4 1209.78L1613.23 1214.22C1615.28 1213.7 1617.49 1213.57 1619.79 1213.89Z" fill="#4B4B4B"/>
<path id="Vector_55" d="M1613.24 1214.23L1621.41 1209.79C1620.37 1210.06 1619.37 1210.43 1618.42 1210.9L1610.25 1215.34C1611.2 1214.87 1612.2 1214.49 1613.24 1214.23Z" fill="#494949"/>
<path id="Vector_56" d="M1610.25 1215.33L1618.42 1210.89C1618.23 1210.99 1618.03 1211.08 1617.84 1211.19L1609.67 1215.63C1609.86 1215.53 1610.06 1215.43 1610.25 1215.33Z" fill="#464646"/>
</g>
</g>
<g id="Group_69">
<g id="Group_70">
<path id="Vector_57" d="M1629.99 1253.03L1638.16 1248.59C1643.45 1245.71 1646.95 1239.82 1646.94 1232.55C1646.93 1229.77 1646.42 1227.04 1645.48 1224.5L1637.32 1228.94C1638.26 1231.49 1638.77 1234.21 1638.78 1236.99C1638.78 1244.27 1635.28 1250.16 1629.99 1253.03Z" fill="#3A3B3A"/>
<path id="Vector_58" d="M1637.31 1228.94L1645.47 1224.5C1645.07 1223.4 1644.59 1222.34 1644.04 1221.31L1635.88 1225.75C1636.43 1226.78 1636.91 1227.84 1637.31 1228.94Z" fill="#3D3D3D"/>
<path id="Vector_59" d="M1635.88 1225.76L1644.04 1221.32C1643.57 1220.45 1643.06 1219.62 1642.5 1218.82L1634.34 1223.26C1634.9 1224.05 1635.41 1224.89 1635.88 1225.76Z" fill="#404040"/>
<path id="Vector_60" d="M1634.33 1223.25L1642.49 1218.81C1641.96 1218.06 1641.39 1217.33 1640.79 1216.65L1632.62 1221.09C1633.24 1221.78 1633.81 1222.5 1634.33 1223.25Z" fill="#424242"/>
<path id="Vector_61" d="M1632.63 1221.09L1640.8 1216.65C1640.19 1215.96 1639.55 1215.31 1638.87 1214.7L1630.71 1219.14C1631.38 1219.75 1632.02 1220.4 1632.63 1221.09Z" fill="#444444"/>
<path id="Vector_62" d="M1630.7 1219.14L1638.86 1214.7C1638.13 1214.05 1637.37 1213.44 1636.57 1212.89L1628.41 1217.33C1629.21 1217.88 1629.97 1218.49 1630.7 1219.14Z" fill="#464646"/>
<path id="Vector_63" d="M1628.41 1217.33L1636.57 1212.89C1635.59 1212.21 1634.56 1211.62 1633.49 1211.12L1625.32 1215.56C1626.4 1216.06 1627.43 1216.65 1628.41 1217.33Z" fill="#494949"/>
<path id="Vector_64" d="M1625.33 1215.56L1633.5 1211.12C1631.75 1210.3 1629.89 1209.73 1627.96 1209.45L1619.8 1213.89C1621.72 1214.16 1623.58 1214.73 1625.33 1215.56Z" fill="#4B4B4B"/>
</g>
</g>
<g id="Group_71">
<path id="Vector_65" d="M1619.79 1213.89C1609.33 1212.42 1600.87 1220.37 1600.89 1231.67C1600.91 1242.96 1609.4 1253.3 1619.87 1254.77C1630.33 1256.24 1638.79 1248.28 1638.77 1236.99C1638.75 1225.7 1630.26 1215.36 1619.79 1213.89Z" fill="#636363"/>
</g>
</g>
</g>
<g id="Group_72">
<g id="Group_73">
<g id="Group_74">
<path id="Vector_66" d="M1164.89 1508.81C1171.21 1512.48 1176.35 1509.56 1176.39 1502.29C1176.43 1495.03 1171.34 1486.17 1165.02 1482.51C1158.71 1478.85 1153.56 1481.77 1153.53 1489.03C1153.49 1496.29 1158.58 1505.15 1164.89 1508.81Z" fill="#B6B7B7"/>
</g>
<g id="Group_75">
<path id="Vector_67" d="M1173.03 1509.63L1629.7 1246.7C1631.76 1245.51 1633.04 1242.97 1633.05 1239.36C1633.09 1232.1 1628 1223.24 1621.68 1219.58C1618.5 1217.74 1615.62 1217.56 1613.54 1218.77L1156.87 1481.7C1158.95 1480.5 1161.83 1480.67 1165.01 1482.51C1171.33 1486.18 1176.42 1495.03 1176.38 1502.29C1176.37 1505.9 1175.09 1508.44 1173.03 1509.63Z" fill="#505050"/>
</g>
</g>
</g>
<g id="Group_76">
<g id="Group_77">
<g id="Group_78">
<g id="Group_79">
<path id="Vector_68" d="M1164.27 1475.6L1172.44 1471.16C1170.14 1470.84 1167.93 1470.97 1165.89 1471.49L1157.73 1475.93C1159.76 1475.41 1161.96 1475.28 1164.27 1475.6Z" fill="#4B4B4B"/>
<path id="Vector_69" d="M1157.72 1475.94L1165.88 1471.5C1164.84 1471.77 1163.83 1472.14 1162.89 1472.61L1154.73 1477.05C1155.67 1476.58 1156.67 1476.2 1157.72 1475.94Z" fill="#494949"/>
<path id="Vector_70" d="M1154.72 1477.04L1162.88 1472.6C1162.69 1472.7 1162.49 1472.8 1162.3 1472.9L1154.14 1477.34C1154.34 1477.24 1154.53 1477.14 1154.72 1477.04Z" fill="#464646"/>
</g>
</g>
<g id="Group_80">
<g id="Group_81">
<path id="Vector_71" d="M1174.46 1514.74L1182.62 1510.3C1187.91 1507.42 1191.41 1501.53 1191.4 1494.26C1191.39 1491.48 1190.88 1488.75 1189.94 1486.21L1181.77 1490.65C1182.71 1493.2 1183.22 1495.92 1183.23 1498.7C1183.26 1505.98 1179.75 1511.87 1174.46 1514.74Z" fill="#3A3B3A"/>
<path id="Vector_72" d="M1181.78 1490.65L1189.95 1486.21C1189.55 1485.11 1189.07 1484.05 1188.52 1483.02L1180.35 1487.46C1180.9 1488.49 1181.38 1489.55 1181.78 1490.65Z" fill="#3D3D3D"/>
<path id="Vector_73" d="M1180.35 1487.47L1188.52 1483.03C1188.05 1482.16 1187.54 1481.33 1186.98 1480.53L1178.82 1484.97C1179.37 1485.76 1179.88 1486.6 1180.35 1487.47Z" fill="#404040"/>
<path id="Vector_74" d="M1178.81 1484.97L1186.97 1480.53C1186.44 1479.78 1185.87 1479.05 1185.27 1478.37L1177.11 1482.81C1177.71 1483.49 1178.28 1484.21 1178.81 1484.97Z" fill="#424242"/>
<path id="Vector_75" d="M1177.1 1482.8L1185.26 1478.36C1184.65 1477.67 1184.01 1477.02 1183.33 1476.41L1175.17 1480.85C1175.85 1481.46 1176.49 1482.11 1177.1 1482.8Z" fill="#444444"/>
<path id="Vector_76" d="M1175.17 1480.85L1183.33 1476.41C1182.6 1475.76 1181.84 1475.15 1181.04 1474.6L1172.87 1479.04C1173.68 1479.59 1174.44 1480.2 1175.17 1480.85Z" fill="#464646"/>
<path id="Vector_77" d="M1172.88 1479.04L1181.05 1474.6C1180.07 1473.92 1179.04 1473.33 1177.97 1472.83L1169.8 1477.27C1170.88 1477.77 1171.9 1478.36 1172.88 1479.04Z" fill="#494949"/>
<path id="Vector_78" d="M1169.81 1477.27L1177.98 1472.83C1176.23 1472.01 1174.37 1471.43 1172.44 1471.16L1164.27 1475.6C1166.19 1475.87 1168.05 1476.44 1169.81 1477.27Z" fill="#4B4B4B"/>
</g>
</g>
<g id="Group_82">
<path id="Vector_79" d="M1174.49 1514.55C1183.31 1509.75 1185.91 1497.49 1180.3 1487.16C1174.68 1476.84 1162.97 1472.36 1154.15 1477.16C1145.32 1481.96 1142.72 1494.22 1148.34 1504.55C1153.96 1514.87 1165.66 1519.35 1174.49 1514.55Z" fill="#636363"/>
</g>
</g>
</g>
<g id="Group_83">
<g id="Group_84">
<g id="Group_85">
<path id="Vector_80" d="M1143.22 983.13L1144.92 1602.79C1144.93 1605.17 1146.49 1607.54 1149.61 1609.35C1155.89 1613 1166.1 1613 1172.43 1609.35C1175.61 1607.51 1177.2 1605.1 1177.19 1602.7L1175.49 983.04C1175.5 985.45 1173.91 987.86 1170.73 989.69C1164.4 993.34 1154.19 993.34 1147.91 989.69C1144.79 987.88 1143.23 985.5 1143.22 983.13Z" fill="#505050"/>
</g>
<g id="Group_86">
<path id="Vector_81" d="M1147.99 976.47C1141.66 980.12 1141.63 986.04 1147.92 989.69C1154.2 993.34 1164.41 993.34 1170.74 989.69C1177.06 986.04 1177.09 980.13 1170.81 976.48C1164.52 972.82 1154.3 972.82 1147.99 976.47Z" fill="#B6B7B7"/>
</g>
</g>
</g>
<g id="Group_87">
<g id="desk_4_">
<path id="Vector_82" d="M1739.36 669.75L1212.85 973.73L54.54 304.98L581 0.97998L1739.36 669.75Z" fill="white"/>
<path id="Vector_83" d="M1212.85 973.73L1213.15 1034.35L54.54 365.77V304.98L1212.85 973.73Z" fill="#E4E4E4"/>
</g>
<path id="Vector_84" d="M1739.36 669.75L1212.85 973.73L1213.15 1034.35L1739.36 730.55V669.75Z" fill="#CFCFCE"/>
</g>
</g>
</g>
</svg>
